<mxfile host="Electron" modified="2024-06-16T14:38:52.544Z" agent="Mozilla/5.0 (Macintosh; Intel Mac OS X 10_15_7) AppleWebKit/537.36 (KHTML, like Gecko) draw.io/24.0.4 Chrome/120.0.6099.109 Electron/28.1.0 Safari/537.36" etag="UzMZAkhSDE6LvcqcNSl-" version="24.0.4" type="device" pages="6">
  <diagram name="test" id="13e1069c-82ec-6db2-03f1-153e76fe0fe0">
    <mxGraphModel dx="1501" dy="907" grid="1" gridSize="10" guides="1" tooltips="1" connect="1" arrows="1" fold="1" page="1" pageScale="1" pageWidth="1100" pageHeight="850" background="none" math="0" shadow="0">
      <root>
        <mxCell id="0" />
        <mxCell id="1" parent="0" />
        <mxCell id="7baba1c4bc27f4b0-2" value=":Object" style="shape=umlLifeline;perimeter=lifelinePerimeter;whiteSpace=wrap;html=1;container=1;collapsible=0;recursiveResize=0;outlineConnect=0;rounded=1;shadow=0;comic=0;labelBackgroundColor=none;strokeWidth=1;fontFamily=Verdana;fontSize=12;align=center;" parent="1" vertex="1">
          <mxGeometry x="240" y="80" width="100" height="580" as="geometry" />
        </mxCell>
        <mxCell id="7baba1c4bc27f4b0-10" value="" style="html=1;points=[];perimeter=orthogonalPerimeter;rounded=0;shadow=0;comic=0;labelBackgroundColor=none;strokeWidth=1;fontFamily=Verdana;fontSize=12;align=center;" parent="7baba1c4bc27f4b0-2" vertex="1">
          <mxGeometry x="45" y="100" width="10" height="230" as="geometry" />
        </mxCell>
        <mxCell id="7baba1c4bc27f4b0-3" value=":Object" style="shape=umlLifeline;perimeter=lifelinePerimeter;whiteSpace=wrap;html=1;container=1;collapsible=0;recursiveResize=0;outlineConnect=0;rounded=1;shadow=0;comic=0;labelBackgroundColor=none;strokeWidth=1;fontFamily=Verdana;fontSize=12;align=center;" parent="1" vertex="1">
          <mxGeometry x="400" y="80" width="100" height="580" as="geometry" />
        </mxCell>
        <mxCell id="7baba1c4bc27f4b0-13" value="" style="html=1;points=[];perimeter=orthogonalPerimeter;rounded=0;shadow=0;comic=0;labelBackgroundColor=none;strokeWidth=1;fontFamily=Verdana;fontSize=12;align=center;" parent="7baba1c4bc27f4b0-3" vertex="1">
          <mxGeometry x="45" y="120" width="10" height="200" as="geometry" />
        </mxCell>
        <mxCell id="7baba1c4bc27f4b0-4" value=":Object" style="shape=umlLifeline;perimeter=lifelinePerimeter;whiteSpace=wrap;html=1;container=1;collapsible=0;recursiveResize=0;outlineConnect=0;rounded=1;shadow=0;comic=0;labelBackgroundColor=none;strokeWidth=1;fontFamily=Verdana;fontSize=12;align=center;" parent="1" vertex="1">
          <mxGeometry x="540" y="80" width="100" height="580" as="geometry" />
        </mxCell>
        <mxCell id="7baba1c4bc27f4b0-5" value=":Object" style="shape=umlLifeline;perimeter=lifelinePerimeter;whiteSpace=wrap;html=1;container=1;collapsible=0;recursiveResize=0;outlineConnect=0;rounded=1;shadow=0;comic=0;labelBackgroundColor=none;strokeWidth=1;fontFamily=Verdana;fontSize=12;align=center;" parent="1" vertex="1">
          <mxGeometry x="680" y="80" width="100" height="580" as="geometry" />
        </mxCell>
        <mxCell id="7baba1c4bc27f4b0-6" value=":Object" style="shape=umlLifeline;perimeter=lifelinePerimeter;whiteSpace=wrap;html=1;container=1;collapsible=0;recursiveResize=0;outlineConnect=0;rounded=1;shadow=0;comic=0;labelBackgroundColor=none;strokeWidth=1;fontFamily=Verdana;fontSize=12;align=center;" parent="1" vertex="1">
          <mxGeometry x="820" y="80" width="100" height="580" as="geometry" />
        </mxCell>
        <mxCell id="7baba1c4bc27f4b0-7" value=":Object" style="shape=umlLifeline;perimeter=lifelinePerimeter;whiteSpace=wrap;html=1;container=1;collapsible=0;recursiveResize=0;outlineConnect=0;rounded=1;shadow=0;comic=0;labelBackgroundColor=none;strokeWidth=1;fontFamily=Verdana;fontSize=12;align=center;" parent="1" vertex="1">
          <mxGeometry x="960" y="80" width="100" height="580" as="geometry" />
        </mxCell>
        <mxCell id="7baba1c4bc27f4b0-8" value=":Object" style="shape=umlLifeline;perimeter=lifelinePerimeter;whiteSpace=wrap;html=1;container=1;collapsible=0;recursiveResize=0;outlineConnect=0;rounded=1;shadow=0;comic=0;labelBackgroundColor=none;strokeWidth=1;fontFamily=Verdana;fontSize=12;align=center;" parent="1" vertex="1">
          <mxGeometry x="100" y="80" width="100" height="580" as="geometry" />
        </mxCell>
        <mxCell id="7baba1c4bc27f4b0-9" value="" style="html=1;points=[];perimeter=orthogonalPerimeter;rounded=0;shadow=0;comic=0;labelBackgroundColor=none;strokeWidth=1;fontFamily=Verdana;fontSize=12;align=center;" parent="7baba1c4bc27f4b0-8" vertex="1">
          <mxGeometry x="45" y="100" width="10" height="440" as="geometry" />
        </mxCell>
        <mxCell id="7baba1c4bc27f4b0-16" value="" style="html=1;points=[];perimeter=orthogonalPerimeter;rounded=0;shadow=0;comic=0;labelBackgroundColor=none;strokeWidth=1;fontFamily=Verdana;fontSize=12;align=center;" parent="1" vertex="1">
          <mxGeometry x="585" y="220" width="10" height="180" as="geometry" />
        </mxCell>
        <mxCell id="7baba1c4bc27f4b0-17" value="dispatch" style="html=1;verticalAlign=bottom;endArrow=block;labelBackgroundColor=none;fontFamily=Verdana;fontSize=12;edgeStyle=elbowEdgeStyle;elbow=vertical;" parent="1" source="7baba1c4bc27f4b0-13" target="7baba1c4bc27f4b0-16" edge="1">
          <mxGeometry relative="1" as="geometry">
            <mxPoint x="510" y="220" as="sourcePoint" />
            <Array as="points">
              <mxPoint x="460" y="220" />
            </Array>
          </mxGeometry>
        </mxCell>
        <mxCell id="7baba1c4bc27f4b0-19" value="" style="html=1;points=[];perimeter=orthogonalPerimeter;rounded=0;shadow=0;comic=0;labelBackgroundColor=none;strokeWidth=1;fontFamily=Verdana;fontSize=12;align=center;" parent="1" vertex="1">
          <mxGeometry x="725" y="230" width="10" height="40" as="geometry" />
        </mxCell>
        <mxCell id="7baba1c4bc27f4b0-20" value="dispatch" style="html=1;verticalAlign=bottom;endArrow=block;entryX=0;entryY=0;labelBackgroundColor=none;fontFamily=Verdana;fontSize=12;edgeStyle=elbowEdgeStyle;elbow=vertical;" parent="1" source="7baba1c4bc27f4b0-16" target="7baba1c4bc27f4b0-19" edge="1">
          <mxGeometry relative="1" as="geometry">
            <mxPoint x="650" y="230" as="sourcePoint" />
          </mxGeometry>
        </mxCell>
        <mxCell id="7baba1c4bc27f4b0-21" value="return" style="html=1;verticalAlign=bottom;endArrow=open;dashed=1;endSize=8;labelBackgroundColor=none;fontFamily=Verdana;fontSize=12;edgeStyle=elbowEdgeStyle;elbow=vertical;" parent="1" source="7baba1c4bc27f4b0-19" target="7baba1c4bc27f4b0-16" edge="1">
          <mxGeometry relative="1" as="geometry">
            <mxPoint x="650" y="306" as="targetPoint" />
            <Array as="points">
              <mxPoint x="670" y="260" />
              <mxPoint x="700" y="260" />
            </Array>
          </mxGeometry>
        </mxCell>
        <mxCell id="7baba1c4bc27f4b0-22" value="" style="html=1;points=[];perimeter=orthogonalPerimeter;rounded=0;shadow=0;comic=0;labelBackgroundColor=none;strokeWidth=1;fontFamily=Verdana;fontSize=12;align=center;" parent="1" vertex="1">
          <mxGeometry x="585" y="440" width="10" height="140" as="geometry" />
        </mxCell>
        <mxCell id="7baba1c4bc27f4b0-23" value="dispatch" style="html=1;verticalAlign=bottom;endArrow=block;entryX=0;entryY=0;labelBackgroundColor=none;fontFamily=Verdana;fontSize=12;" parent="1" source="7baba1c4bc27f4b0-9" target="7baba1c4bc27f4b0-22" edge="1">
          <mxGeometry relative="1" as="geometry">
            <mxPoint x="510" y="420" as="sourcePoint" />
          </mxGeometry>
        </mxCell>
        <mxCell id="7baba1c4bc27f4b0-25" value="" style="html=1;points=[];perimeter=orthogonalPerimeter;rounded=0;shadow=0;comic=0;labelBackgroundColor=none;strokeColor=#000000;strokeWidth=1;fillColor=#FFFFFF;fontFamily=Verdana;fontSize=12;fontColor=#000000;align=center;" parent="1" vertex="1">
          <mxGeometry x="1005" y="460" width="10" height="30" as="geometry" />
        </mxCell>
        <mxCell id="7baba1c4bc27f4b0-26" value="dispatch" style="html=1;verticalAlign=bottom;endArrow=block;entryX=0;entryY=0;labelBackgroundColor=none;fontFamily=Verdana;fontSize=12;" parent="1" source="7baba1c4bc27f4b0-22" target="7baba1c4bc27f4b0-25" edge="1">
          <mxGeometry relative="1" as="geometry">
            <mxPoint x="930" y="340" as="sourcePoint" />
          </mxGeometry>
        </mxCell>
        <mxCell id="7baba1c4bc27f4b0-27" value="return" style="html=1;verticalAlign=bottom;endArrow=open;dashed=1;endSize=8;exitX=0;exitY=0.95;labelBackgroundColor=none;fontFamily=Verdana;fontSize=12;" parent="1" source="7baba1c4bc27f4b0-25" target="7baba1c4bc27f4b0-22" edge="1">
          <mxGeometry relative="1" as="geometry">
            <mxPoint x="930" y="416" as="targetPoint" />
          </mxGeometry>
        </mxCell>
        <mxCell id="7baba1c4bc27f4b0-28" value="" style="html=1;points=[];perimeter=orthogonalPerimeter;rounded=0;shadow=0;comic=0;labelBackgroundColor=none;strokeWidth=1;fontFamily=Verdana;fontSize=12;align=center;" parent="1" vertex="1">
          <mxGeometry x="870" y="550" width="10" height="60" as="geometry" />
        </mxCell>
        <mxCell id="7baba1c4bc27f4b0-29" value="dispatch" style="html=1;verticalAlign=bottom;endArrow=block;entryX=0;entryY=0;labelBackgroundColor=none;fontFamily=Verdana;fontSize=12;edgeStyle=elbowEdgeStyle;elbow=vertical;" parent="1" source="7baba1c4bc27f4b0-37" target="7baba1c4bc27f4b0-28" edge="1">
          <mxGeometry relative="1" as="geometry">
            <mxPoint x="800" y="550" as="sourcePoint" />
          </mxGeometry>
        </mxCell>
        <mxCell id="7baba1c4bc27f4b0-30" value="return" style="html=1;verticalAlign=bottom;endArrow=open;dashed=1;endSize=8;labelBackgroundColor=none;fontFamily=Verdana;fontSize=12;edgeStyle=elbowEdgeStyle;elbow=vertical;" parent="1" source="7baba1c4bc27f4b0-28" target="7baba1c4bc27f4b0-9" edge="1">
          <mxGeometry relative="1" as="geometry">
            <mxPoint x="800" y="626" as="targetPoint" />
            <Array as="points">
              <mxPoint x="570" y="600" />
            </Array>
          </mxGeometry>
        </mxCell>
        <mxCell id="7baba1c4bc27f4b0-11" value="dispatch" style="html=1;verticalAlign=bottom;endArrow=block;entryX=0;entryY=0;labelBackgroundColor=none;fontFamily=Verdana;fontSize=12;edgeStyle=elbowEdgeStyle;elbow=vertical;" parent="1" source="7baba1c4bc27f4b0-9" target="7baba1c4bc27f4b0-10" edge="1">
          <mxGeometry relative="1" as="geometry">
            <mxPoint x="220" y="190" as="sourcePoint" />
          </mxGeometry>
        </mxCell>
        <mxCell id="7baba1c4bc27f4b0-14" value="dispatch" style="html=1;verticalAlign=bottom;endArrow=block;entryX=0;entryY=0;labelBackgroundColor=none;fontFamily=Verdana;fontSize=12;edgeStyle=elbowEdgeStyle;elbow=vertical;" parent="1" source="7baba1c4bc27f4b0-10" target="7baba1c4bc27f4b0-13" edge="1">
          <mxGeometry relative="1" as="geometry">
            <mxPoint x="370" y="200" as="sourcePoint" />
          </mxGeometry>
        </mxCell>
        <mxCell id="7baba1c4bc27f4b0-34" value="" style="html=1;points=[];perimeter=orthogonalPerimeter;rounded=0;shadow=0;comic=0;labelBackgroundColor=none;strokeWidth=1;fontFamily=Verdana;fontSize=12;align=center;" parent="1" vertex="1">
          <mxGeometry x="590" y="300" width="10" height="70" as="geometry" />
        </mxCell>
        <mxCell id="7baba1c4bc27f4b0-35" value="dispatch" style="html=1;verticalAlign=bottom;endArrow=block;labelBackgroundColor=none;fontFamily=Verdana;fontSize=12;elbow=vertical;edgeStyle=orthogonalEdgeStyle;curved=1;entryX=1;entryY=0.286;entryPerimeter=0;exitX=1.038;exitY=0.345;exitPerimeter=0;" parent="1" source="7baba1c4bc27f4b0-16" target="7baba1c4bc27f4b0-34" edge="1">
          <mxGeometry relative="1" as="geometry">
            <mxPoint x="465" y="230" as="sourcePoint" />
            <mxPoint x="595" y="230" as="targetPoint" />
            <Array as="points">
              <mxPoint x="650" y="282" />
              <mxPoint x="650" y="320" />
            </Array>
          </mxGeometry>
        </mxCell>
        <mxCell id="7baba1c4bc27f4b0-36" value="dispatch" style="html=1;verticalAlign=bottom;endArrow=block;labelBackgroundColor=none;fontFamily=Verdana;fontSize=12;elbow=vertical;edgeStyle=orthogonalEdgeStyle;curved=1;exitX=1.066;exitY=0.713;exitPerimeter=0;" parent="1" source="7baba1c4bc27f4b0-34" edge="1">
          <mxGeometry relative="1" as="geometry">
            <mxPoint x="610.3333333333333" y="350" as="sourcePoint" />
            <mxPoint x="595" y="389" as="targetPoint" />
            <Array as="points">
              <mxPoint x="650" y="350" />
              <mxPoint x="650" y="389" />
            </Array>
          </mxGeometry>
        </mxCell>
        <mxCell id="7baba1c4bc27f4b0-37" value="" style="html=1;points=[];perimeter=orthogonalPerimeter;rounded=0;shadow=0;comic=0;labelBackgroundColor=none;strokeWidth=1;fontFamily=Verdana;fontSize=12;align=center;" parent="1" vertex="1">
          <mxGeometry x="590" y="520" width="10" height="40" as="geometry" />
        </mxCell>
        <mxCell id="7baba1c4bc27f4b0-39" value="dispatch" style="html=1;verticalAlign=bottom;endArrow=block;labelBackgroundColor=none;fontFamily=Verdana;fontSize=12;elbow=vertical;edgeStyle=orthogonalEdgeStyle;curved=1;entryX=1;entryY=0.286;entryPerimeter=0;exitX=1.038;exitY=0.345;exitPerimeter=0;" parent="1" edge="1">
          <mxGeometry relative="1" as="geometry">
            <mxPoint x="595.3333333333335" y="501" as="sourcePoint" />
            <mxPoint x="600.3333333333335" y="539.3333333333334" as="targetPoint" />
            <Array as="points">
              <mxPoint x="650" y="501" />
              <mxPoint x="650" y="539" />
            </Array>
          </mxGeometry>
        </mxCell>
        <mxCell id="7baba1c4bc27f4b0-40" value="Note" style="shape=note;whiteSpace=wrap;html=1;size=14;verticalAlign=top;align=left;spacingTop=-6;rounded=0;shadow=0;comic=0;labelBackgroundColor=none;strokeWidth=1;fontFamily=Verdana;fontSize=12" parent="1" vertex="1">
          <mxGeometry x="100" y="30" width="100" height="35" as="geometry" />
        </mxCell>
        <mxCell id="7baba1c4bc27f4b0-41" value="Note" style="shape=note;whiteSpace=wrap;html=1;size=14;verticalAlign=top;align=left;spacingTop=-6;rounded=0;shadow=0;comic=0;labelBackgroundColor=none;strokeWidth=1;fontFamily=Verdana;fontSize=12" parent="1" vertex="1">
          <mxGeometry x="240" y="30" width="100" height="35" as="geometry" />
        </mxCell>
        <mxCell id="7baba1c4bc27f4b0-42" value="Note" style="shape=note;whiteSpace=wrap;html=1;size=14;verticalAlign=top;align=left;spacingTop=-6;rounded=0;shadow=0;comic=0;labelBackgroundColor=none;strokeWidth=1;fontFamily=Verdana;fontSize=12" parent="1" vertex="1">
          <mxGeometry x="400" y="30" width="100" height="35" as="geometry" />
        </mxCell>
        <mxCell id="7baba1c4bc27f4b0-43" value="Note" style="shape=note;whiteSpace=wrap;html=1;size=14;verticalAlign=top;align=left;spacingTop=-6;rounded=0;shadow=0;comic=0;labelBackgroundColor=none;strokeWidth=1;fontFamily=Verdana;fontSize=12" parent="1" vertex="1">
          <mxGeometry x="540" y="30" width="100" height="35" as="geometry" />
        </mxCell>
        <mxCell id="7baba1c4bc27f4b0-44" value="Note" style="shape=note;whiteSpace=wrap;html=1;size=14;verticalAlign=top;align=left;spacingTop=-6;rounded=0;shadow=0;comic=0;labelBackgroundColor=none;strokeWidth=1;fontFamily=Verdana;fontSize=12" parent="1" vertex="1">
          <mxGeometry x="680" y="30" width="100" height="35" as="geometry" />
        </mxCell>
        <mxCell id="7baba1c4bc27f4b0-45" value="Note" style="shape=note;whiteSpace=wrap;html=1;size=14;verticalAlign=top;align=left;spacingTop=-6;rounded=0;shadow=0;comic=0;labelBackgroundColor=none;strokeWidth=1;fontFamily=Verdana;fontSize=12" parent="1" vertex="1">
          <mxGeometry x="820" y="30" width="100" height="35" as="geometry" />
        </mxCell>
        <mxCell id="7baba1c4bc27f4b0-46" value="Note" style="shape=note;whiteSpace=wrap;html=1;size=14;verticalAlign=top;align=left;spacingTop=-6;rounded=0;shadow=0;comic=0;labelBackgroundColor=none;strokeWidth=1;fontFamily=Verdana;fontSize=12" parent="1" vertex="1">
          <mxGeometry x="960" y="30" width="100" height="35" as="geometry" />
        </mxCell>
      </root>
    </mxGraphModel>
  </diagram>
  <diagram id="aHCoTDV6RuFNeLXmYJjE" name="系統註冊">
    <mxGraphModel dx="1668" dy="1008" grid="1" gridSize="10" guides="1" tooltips="1" connect="1" arrows="1" fold="1" page="1" pageScale="1" pageWidth="827" pageHeight="1169" math="0" shadow="0">
      <root>
        <mxCell id="0" />
        <mxCell id="1" parent="0" />
        <mxCell id="9rBJoFf6euYmi_4-r9ua-3" value="&lt;font style=&quot;font-size: 14px;&quot;&gt;FIDO Client&lt;/font&gt;" style="shape=umlLifeline;perimeter=lifelinePerimeter;whiteSpace=wrap;html=1;container=1;collapsible=0;recursiveResize=0;outlineConnect=0;rounded=1;shadow=0;comic=0;labelBackgroundColor=none;strokeWidth=1;fontFamily=Verdana;fontSize=14;align=center;fillColor=#fff2cc;strokeColor=#990000;" vertex="1" parent="1">
          <mxGeometry x="363" y="80" width="100" height="1680" as="geometry" />
        </mxCell>
        <mxCell id="7O51_TGhtRO0CPyqISeY-18" value="" style="endArrow=classic;html=1;rounded=0;strokeWidth=1;" edge="1" parent="9rBJoFf6euYmi_4-r9ua-3" target="9rBJoFf6euYmi_4-r9ua-5">
          <mxGeometry width="50" height="50" relative="1" as="geometry">
            <mxPoint x="-243" y="120" as="sourcePoint" />
            <mxPoint x="117" y="120" as="targetPoint" />
          </mxGeometry>
        </mxCell>
        <mxCell id="9rBJoFf6euYmi_4-r9ua-5" value="&lt;font style=&quot;font-size: 14px;&quot;&gt;Browser&lt;/font&gt;" style="shape=umlLifeline;perimeter=lifelinePerimeter;whiteSpace=wrap;html=1;container=1;collapsible=0;recursiveResize=0;outlineConnect=0;rounded=1;shadow=0;comic=0;labelBackgroundColor=none;strokeWidth=1;fontFamily=Verdana;fontSize=14;align=center;fillColor=#fff2cc;strokeColor=#990000;" vertex="1" parent="1">
          <mxGeometry x="512" y="80" width="100" height="1680" as="geometry" />
        </mxCell>
        <mxCell id="zkOCBZDMIl6E29iJL5I4-2" value="" style="html=1;points=[];perimeter=orthogonalPerimeter;rounded=0;shadow=0;comic=0;labelBackgroundColor=none;strokeWidth=1;fontFamily=Verdana;fontSize=12;align=center;" vertex="1" parent="9rBJoFf6euYmi_4-r9ua-5">
          <mxGeometry x="48" y="120" width="10" height="500" as="geometry" />
        </mxCell>
        <mxCell id="MtFkFNDyS-Lr--tjTS6Z-8" value="&lt;span style=&quot;color: rgb(0, 0, 0); font-family: Helvetica; font-size: 18px; font-style: normal; font-variant-ligatures: normal; font-variant-caps: normal; font-weight: 400; letter-spacing: normal; orphans: 2; text-align: center; text-indent: 0px; text-transform: none; widows: 2; word-spacing: 0px; -webkit-text-stroke-width: 0px; white-space: normal; background-color: rgb(251, 251, 251); text-decoration-thickness: initial; text-decoration-style: initial; text-decoration-color: initial; display: inline !important; float: none;&quot;&gt;發送註冊結果&lt;/span&gt;" style="text;whiteSpace=wrap;html=1;" vertex="1" parent="9rBJoFf6euYmi_4-r9ua-5">
          <mxGeometry x="-82" y="970" width="110" height="30" as="geometry" />
        </mxCell>
        <mxCell id="MtFkFNDyS-Lr--tjTS6Z-32" value="" style="html=1;verticalAlign=bottom;endArrow=open;dashed=1;endSize=8;labelBackgroundColor=none;fontFamily=Verdana;fontSize=12;edgeStyle=elbowEdgeStyle;elbow=vertical;strokeWidth=1;entryX=0.5;entryY=0.909;entryDx=0;entryDy=0;entryPerimeter=0;" edge="1" parent="9rBJoFf6euYmi_4-r9ua-5" source="9rBJoFf6euYmi_4-r9ua-9">
          <mxGeometry x="0.0019" relative="1" as="geometry">
            <mxPoint x="50" y="1580.2399999999998" as="targetPoint" />
            <Array as="points">
              <mxPoint x="110" y="1580" />
            </Array>
            <mxPoint x="170" y="1580" as="sourcePoint" />
            <mxPoint as="offset" />
          </mxGeometry>
        </mxCell>
        <mxCell id="g-BI4LfrO7_brFLyY8yz-5" value="" style="html=1;verticalAlign=bottom;endArrow=open;dashed=1;endSize=8;labelBackgroundColor=none;fontFamily=Verdana;fontSize=12;edgeStyle=elbowEdgeStyle;elbow=vertical;strokeWidth=1;" edge="1" parent="9rBJoFf6euYmi_4-r9ua-5" target="9rBJoFf6euYmi_4-r9ua-3">
          <mxGeometry x="0.0019" relative="1" as="geometry">
            <mxPoint x="-70" y="620" as="targetPoint" />
            <Array as="points">
              <mxPoint x="-20" y="620" />
            </Array>
            <mxPoint x="50" y="620" as="sourcePoint" />
            <mxPoint as="offset" />
          </mxGeometry>
        </mxCell>
        <mxCell id="MtFkFNDyS-Lr--tjTS6Z-9" value="" style="endArrow=classic;html=1;rounded=0;strokeWidth=1;" edge="1" parent="9rBJoFf6euYmi_4-r9ua-5" target="9rBJoFf6euYmi_4-r9ua-5">
          <mxGeometry width="50" height="50" relative="1" as="geometry">
            <mxPoint x="-97.9951612903227" y="1010" as="sourcePoint" />
            <mxPoint x="24.5" y="1010" as="targetPoint" />
          </mxGeometry>
        </mxCell>
        <mxCell id="MtFkFNDyS-Lr--tjTS6Z-13" value="" style="endArrow=classic;html=1;rounded=0;strokeWidth=1;" edge="1" parent="9rBJoFf6euYmi_4-r9ua-5">
          <mxGeometry width="50" height="50" relative="1" as="geometry">
            <mxPoint x="50" y="1050" as="sourcePoint" />
            <mxPoint x="201.5" y="1050" as="targetPoint" />
          </mxGeometry>
        </mxCell>
        <mxCell id="MtFkFNDyS-Lr--tjTS6Z-34" value="" style="html=1;verticalAlign=bottom;endArrow=open;dashed=1;endSize=8;labelBackgroundColor=none;fontFamily=Verdana;fontSize=12;edgeStyle=elbowEdgeStyle;elbow=vertical;strokeWidth=1;" edge="1" parent="9rBJoFf6euYmi_4-r9ua-5">
          <mxGeometry x="0.0019" relative="1" as="geometry">
            <mxPoint x="-392" y="1640" as="targetPoint" />
            <Array as="points">
              <mxPoint x="-6.25" y="1640" />
            </Array>
            <mxPoint x="50" y="1640" as="sourcePoint" />
            <mxPoint as="offset" />
          </mxGeometry>
        </mxCell>
        <mxCell id="_blSvhzHI7yUFD_z-E3W-6" value="" style="html=1;verticalAlign=bottom;endArrow=open;dashed=1;endSize=8;labelBackgroundColor=none;fontFamily=Verdana;fontSize=12;edgeStyle=elbowEdgeStyle;elbow=vertical;strokeWidth=1;" edge="1" parent="9rBJoFf6euYmi_4-r9ua-5" source="9rBJoFf6euYmi_4-r9ua-9">
          <mxGeometry x="0.0019" relative="1" as="geometry">
            <mxPoint x="57.999059829059775" y="570" as="targetPoint" />
            <Array as="points">
              <mxPoint x="127.66999999999996" y="570" />
            </Array>
            <mxPoint x="185.66999999999996" y="570" as="sourcePoint" />
            <mxPoint as="offset" />
          </mxGeometry>
        </mxCell>
        <mxCell id="9rBJoFf6euYmi_4-r9ua-7" value="&lt;font style=&quot;font-size: 14px;&quot;&gt;FIDO Server&lt;/font&gt;" style="shape=umlLifeline;perimeter=lifelinePerimeter;whiteSpace=wrap;html=1;container=1;collapsible=0;recursiveResize=0;outlineConnect=0;rounded=1;shadow=0;comic=0;labelBackgroundColor=none;strokeWidth=1;fontFamily=Verdana;fontSize=12;align=center;fillColor=#fff2cc;strokeColor=#990000;" vertex="1" parent="1">
          <mxGeometry x="811" y="80" width="100" height="1680" as="geometry" />
        </mxCell>
        <mxCell id="7O51_TGhtRO0CPyqISeY-20" value="" style="endArrow=classic;html=1;rounded=0;strokeWidth=1;exitX=0.974;exitY=0.123;exitDx=0;exitDy=0;exitPerimeter=0;" edge="1" parent="9rBJoFf6euYmi_4-r9ua-7" source="Az09dQ2S-EzUo8NJq7P--1">
          <mxGeometry width="50" height="50" relative="1" as="geometry">
            <mxPoint x="-101" y="220" as="sourcePoint" />
            <mxPoint x="39" y="220" as="targetPoint" />
            <Array as="points" />
          </mxGeometry>
        </mxCell>
        <mxCell id="zkOCBZDMIl6E29iJL5I4-1" value="" style="html=1;points=[];perimeter=orthogonalPerimeter;rounded=0;shadow=0;comic=0;labelBackgroundColor=none;strokeWidth=1;fontFamily=Verdana;fontSize=12;align=center;" vertex="1" parent="9rBJoFf6euYmi_4-r9ua-7">
          <mxGeometry x="40" y="220" width="10" height="290" as="geometry" />
        </mxCell>
        <mxCell id="Az09dQ2S-EzUo8NJq7P--2" value="" style="html=1;points=[];perimeter=orthogonalPerimeter;rounded=0;shadow=0;comic=0;labelBackgroundColor=none;strokeWidth=1;fontFamily=Verdana;fontSize=12;align=center;" vertex="1" parent="9rBJoFf6euYmi_4-r9ua-7">
          <mxGeometry x="45" y="320" width="10" height="130" as="geometry" />
        </mxCell>
        <mxCell id="MtFkFNDyS-Lr--tjTS6Z-14" value="&lt;span style=&quot;color: rgb(0, 0, 0); font-family: Helvetica; font-size: 18px; font-style: normal; font-variant-ligatures: normal; font-variant-caps: normal; font-weight: 400; letter-spacing: normal; orphans: 2; text-align: center; text-indent: 0px; text-transform: none; widows: 2; word-spacing: 0px; -webkit-text-stroke-width: 0px; white-space: normal; background-color: rgb(251, 251, 251); text-decoration-thickness: initial; text-decoration-style: initial; text-decoration-color: initial; display: inline !important; float: none;&quot;&gt;發送註冊結果&lt;/span&gt;" style="text;whiteSpace=wrap;html=1;" vertex="1" parent="9rBJoFf6euYmi_4-r9ua-7">
          <mxGeometry x="-78" y="1055" width="110" height="30" as="geometry" />
        </mxCell>
        <mxCell id="QVcSz2BidJpiBDjh0ldY-8" value="" style="endArrow=classic;html=1;rounded=0;strokeWidth=1;" edge="1" parent="9rBJoFf6euYmi_4-r9ua-7" target="9rBJoFf6euYmi_4-r9ua-7">
          <mxGeometry width="50" height="50" relative="1" as="geometry">
            <mxPoint x="-91.5" y="1090" as="sourcePoint" />
            <mxPoint x="39" y="1090" as="targetPoint" />
          </mxGeometry>
        </mxCell>
        <mxCell id="QVcSz2BidJpiBDjh0ldY-9" value="" style="html=1;points=[];perimeter=orthogonalPerimeter;rounded=0;shadow=0;comic=0;labelBackgroundColor=none;strokeWidth=1;fontFamily=Verdana;fontSize=12;align=center;" vertex="1" parent="9rBJoFf6euYmi_4-r9ua-7">
          <mxGeometry x="50" y="1089" width="10" height="441" as="geometry" />
        </mxCell>
        <mxCell id="QVcSz2BidJpiBDjh0ldY-10" value="" style="html=1;points=[];perimeter=orthogonalPerimeter;rounded=0;shadow=0;comic=0;labelBackgroundColor=none;strokeWidth=1;fontFamily=Verdana;fontSize=12;align=center;" vertex="1" parent="9rBJoFf6euYmi_4-r9ua-7">
          <mxGeometry x="55" y="1100" width="10" height="219" as="geometry" />
        </mxCell>
        <mxCell id="QVcSz2BidJpiBDjh0ldY-11" value="" style="html=1;verticalAlign=bottom;endArrow=open;dashed=1;endSize=8;labelBackgroundColor=none;fontFamily=Verdana;fontSize=12;edgeStyle=elbowEdgeStyle;elbow=vertical;strokeWidth=1;entryX=0.5;entryY=0.909;entryDx=0;entryDy=0;entryPerimeter=0;" edge="1" parent="9rBJoFf6euYmi_4-r9ua-7" source="9rBJoFf6euYmi_4-r9ua-7">
          <mxGeometry x="0.0019" relative="1" as="geometry">
            <mxPoint x="-90" y="1530.2399999999998" as="targetPoint" />
            <Array as="points">
              <mxPoint x="-30" y="1530" />
            </Array>
            <mxPoint x="39" y="1530" as="sourcePoint" />
            <mxPoint as="offset" />
          </mxGeometry>
        </mxCell>
        <mxCell id="9rBJoFf6euYmi_4-r9ua-9" value="&lt;font style=&quot;font-size: 14px;&quot;&gt;Web Server&lt;/font&gt;" style="shape=umlLifeline;perimeter=lifelinePerimeter;whiteSpace=wrap;html=1;container=1;collapsible=0;recursiveResize=0;outlineConnect=0;rounded=1;shadow=0;comic=0;labelBackgroundColor=none;strokeWidth=1;fontFamily=Verdana;fontSize=12;align=center;fillColor=#fff2cc;strokeColor=#990000;" vertex="1" parent="1">
          <mxGeometry x="662" y="80" width="100" height="1680" as="geometry" />
        </mxCell>
        <mxCell id="7O51_TGhtRO0CPyqISeY-23" value="&lt;font style=&quot;font-size: 18px;&quot;&gt;啟動註冊流程&lt;/font&gt;" style="text;html=1;align=center;verticalAlign=middle;whiteSpace=wrap;rounded=0;" vertex="1" parent="9rBJoFf6euYmi_4-r9ua-9">
          <mxGeometry x="-90" y="130" width="130" height="30" as="geometry" />
        </mxCell>
        <mxCell id="MtFkFNDyS-Lr--tjTS6Z-40" value="" style="html=1;points=[];perimeter=orthogonalPerimeter;rounded=0;shadow=0;comic=0;labelBackgroundColor=none;strokeWidth=1;fontFamily=Verdana;fontSize=12;align=center;" vertex="1" parent="9rBJoFf6euYmi_4-r9ua-9">
          <mxGeometry x="50" y="1050" width="10" height="530" as="geometry" />
        </mxCell>
        <mxCell id="7O51_TGhtRO0CPyqISeY-24" value="" style="endArrow=classic;html=1;rounded=0;strokeWidth=1;" edge="1" parent="9rBJoFf6euYmi_4-r9ua-9" target="9rBJoFf6euYmi_4-r9ua-9">
          <mxGeometry width="50" height="50" relative="1" as="geometry">
            <mxPoint x="-92" y="170" as="sourcePoint" />
            <mxPoint x="40" y="170" as="targetPoint" />
          </mxGeometry>
        </mxCell>
        <mxCell id="Az09dQ2S-EzUo8NJq7P--1" value="" style="html=1;points=[];perimeter=orthogonalPerimeter;rounded=0;shadow=0;comic=0;labelBackgroundColor=none;strokeWidth=1;fontFamily=Verdana;fontSize=12;align=center;" vertex="1" parent="9rBJoFf6euYmi_4-r9ua-9">
          <mxGeometry x="50" y="170" width="10" height="400" as="geometry" />
        </mxCell>
        <mxCell id="9rBJoFf6euYmi_4-r9ua-11" value="&lt;font style=&quot;font-size: 30px;&quot;&gt;Actor&lt;/font&gt;" style="shape=umlActor;verticalLabelPosition=bottom;verticalAlign=top;html=1;outlineConnect=0;fontSize=30;" vertex="1" parent="1">
          <mxGeometry x="100" y="80" width="30" height="60" as="geometry" />
        </mxCell>
        <mxCell id="7O51_TGhtRO0CPyqISeY-1" value="&lt;font style=&quot;font-size: 30px;&quot;&gt;Client&lt;/font&gt;" style="shape=note;whiteSpace=wrap;html=1;size=14;verticalAlign=top;align=center;spacingTop=-6;rounded=0;shadow=0;comic=0;labelBackgroundColor=none;strokeWidth=1;fontFamily=Verdana;fontSize=12;fillColor=#d5e8d4;strokeColor=#82b366;" vertex="1" parent="1">
          <mxGeometry x="214" y="30" width="396" height="40" as="geometry" />
        </mxCell>
        <mxCell id="7O51_TGhtRO0CPyqISeY-2" value="&lt;font style=&quot;font-size: 30px;&quot;&gt;Server&lt;/font&gt;" style="shape=note;whiteSpace=wrap;html=1;size=14;verticalAlign=top;align=center;spacingTop=-6;rounded=0;shadow=0;comic=0;labelBackgroundColor=none;strokeWidth=1;fontFamily=Verdana;fontSize=12;fillColor=#dae8fc;strokeColor=#6c8ebf;" vertex="1" parent="1">
          <mxGeometry x="661" y="30" width="400" height="40" as="geometry" />
        </mxCell>
        <mxCell id="7O51_TGhtRO0CPyqISeY-4" value="&lt;font style=&quot;font-size: 14px;&quot;&gt;Database Server&lt;/font&gt;" style="shape=umlLifeline;perimeter=lifelinePerimeter;whiteSpace=wrap;html=1;container=1;collapsible=0;recursiveResize=0;outlineConnect=0;rounded=1;shadow=0;comic=0;labelBackgroundColor=none;strokeWidth=1;fontFamily=Verdana;fontSize=12;align=center;fillColor=#fff2cc;strokeColor=#990000;fixedWidth=0;" vertex="1" parent="1">
          <mxGeometry x="960" y="80" width="100" height="1680" as="geometry" />
        </mxCell>
        <mxCell id="MtFkFNDyS-Lr--tjTS6Z-35" value="" style="html=1;points=[];perimeter=orthogonalPerimeter;rounded=0;shadow=0;comic=0;labelBackgroundColor=none;strokeWidth=1;fontFamily=Verdana;fontSize=12;align=center;" vertex="1" parent="7O51_TGhtRO0CPyqISeY-4">
          <mxGeometry x="50" y="1400" width="10" height="80" as="geometry" />
        </mxCell>
        <mxCell id="MtFkFNDyS-Lr--tjTS6Z-25" value="" style="endArrow=classic;html=1;rounded=0;strokeWidth=1;exitX=1.086;exitY=0.691;exitDx=0;exitDy=0;exitPerimeter=0;" edge="1" parent="7O51_TGhtRO0CPyqISeY-4" target="MtFkFNDyS-Lr--tjTS6Z-35">
          <mxGeometry width="50" height="50" relative="1" as="geometry">
            <mxPoint x="-88.14000000000033" y="1400.2200000000003" as="sourcePoint" />
            <mxPoint x="47.5" y="1400" as="targetPoint" />
          </mxGeometry>
        </mxCell>
        <mxCell id="7O51_TGhtRO0CPyqISeY-17" value="" style="endArrow=none;dashed=1;html=1;rounded=0;strokeColor=#990000;" edge="1" parent="1">
          <mxGeometry width="50" height="50" relative="1" as="geometry">
            <mxPoint x="120" y="1760" as="sourcePoint" />
            <mxPoint x="120" y="200" as="targetPoint" />
          </mxGeometry>
        </mxCell>
        <mxCell id="7O51_TGhtRO0CPyqISeY-19" value="&lt;font style=&quot;font-size: 18px;&quot;&gt;輸入使用者名稱&lt;/font&gt;" style="text;html=1;align=center;verticalAlign=middle;whiteSpace=wrap;rounded=0;" vertex="1" parent="1">
          <mxGeometry x="280" y="170" width="130" height="30" as="geometry" />
        </mxCell>
        <mxCell id="7O51_TGhtRO0CPyqISeY-28" value="&lt;font style=&quot;font-size: 18px;&quot;&gt;產生&lt;br&gt;註冊選項, &lt;br&gt;驗證器政策, &lt;br&gt;挑戰碼(challenge)&lt;/font&gt;" style="text;html=1;align=center;verticalAlign=middle;whiteSpace=wrap;rounded=0;" vertex="1" parent="1">
          <mxGeometry x="880" y="300" width="100" height="160" as="geometry" />
        </mxCell>
        <mxCell id="_blSvhzHI7yUFD_z-E3W-5" value="&lt;span style=&quot;font-size: 18px;&quot;&gt;回傳&lt;/span&gt;" style="text;html=1;align=center;verticalAlign=middle;whiteSpace=wrap;rounded=0;" vertex="1" parent="1">
          <mxGeometry x="583" y="620" width="100" height="20" as="geometry" />
        </mxCell>
        <mxCell id="7O51_TGhtRO0CPyqISeY-25" value="&lt;font style=&quot;font-size: 18px;&quot;&gt;系統註冊&lt;/font&gt;" style="text;html=1;align=center;verticalAlign=middle;whiteSpace=wrap;rounded=0;" vertex="1" parent="1">
          <mxGeometry x="737" y="260" width="90" height="30" as="geometry" />
        </mxCell>
        <mxCell id="7O51_TGhtRO0CPyqISeY-27" value="" style="curved=1;endArrow=classic;html=1;rounded=0;strokeWidth=1;" edge="1" parent="1">
          <mxGeometry width="50" height="50" relative="1" as="geometry">
            <mxPoint x="870.0039393939394" y="450" as="sourcePoint" />
            <mxPoint x="870.0039393939394" y="510" as="targetPoint" />
            <Array as="points">
              <mxPoint x="940" y="450" />
              <mxPoint x="910" y="510" />
            </Array>
          </mxGeometry>
        </mxCell>
        <mxCell id="MtFkFNDyS-Lr--tjTS6Z-2" value="" style="curved=1;endArrow=classic;html=1;rounded=0;strokeWidth=1;" edge="1" parent="1">
          <mxGeometry width="50" height="50" relative="1" as="geometry">
            <mxPoint x="280.0039393939394" y="891" as="sourcePoint" />
            <mxPoint x="280.0039393939394" y="951" as="targetPoint" />
            <Array as="points">
              <mxPoint x="350" y="890" />
              <mxPoint x="320" y="950" />
            </Array>
          </mxGeometry>
        </mxCell>
        <mxCell id="MtFkFNDyS-Lr--tjTS6Z-3" value="" style="endArrow=classic;html=1;rounded=0;strokeWidth=1;" edge="1" parent="1" target="9rBJoFf6euYmi_4-r9ua-3">
          <mxGeometry width="50" height="50" relative="1" as="geometry">
            <mxPoint x="270.5048387096773" y="1040" as="sourcePoint" />
            <mxPoint x="393" y="1040" as="targetPoint" />
          </mxGeometry>
        </mxCell>
        <mxCell id="g-BI4LfrO7_brFLyY8yz-3" value="&lt;span style=&quot;font-size: 18px;&quot;&gt;回傳&lt;/span&gt;" style="text;html=1;align=center;verticalAlign=middle;whiteSpace=wrap;rounded=0;" vertex="1" parent="1">
          <mxGeometry x="435" y="670" width="100" height="20" as="geometry" />
        </mxCell>
        <mxCell id="MtFkFNDyS-Lr--tjTS6Z-1" value="&lt;span style=&quot;font-size: 18px;&quot;&gt;建立新的公私鑰對,&lt;br&gt;使用私鑰簽署挑戰碼,&lt;br&gt;儲存私鑰&lt;/span&gt;" style="text;html=1;align=center;verticalAlign=middle;whiteSpace=wrap;rounded=0;" vertex="1" parent="1">
          <mxGeometry x="293" y="770" width="100" height="120" as="geometry" />
        </mxCell>
        <mxCell id="MtFkFNDyS-Lr--tjTS6Z-12" value="&lt;span style=&quot;color: rgb(0, 0, 0); font-family: Helvetica; font-size: 18px; font-style: normal; font-variant-ligatures: normal; font-variant-caps: normal; font-weight: 400; letter-spacing: normal; orphans: 2; text-align: center; text-indent: 0px; text-transform: none; widows: 2; word-spacing: 0px; -webkit-text-stroke-width: 0px; white-space: normal; background-color: rgb(251, 251, 251); text-decoration-thickness: initial; text-decoration-style: initial; text-decoration-color: initial; display: inline !important; float: none;&quot;&gt;發送註冊結果&lt;/span&gt;" style="text;whiteSpace=wrap;html=1;" vertex="1" parent="1">
          <mxGeometry x="578" y="1090" width="110" height="30" as="geometry" />
        </mxCell>
        <mxCell id="MtFkFNDyS-Lr--tjTS6Z-22" value="&lt;font style=&quot;font-size: 18px;&quot;&gt;驗證&lt;br&gt;註冊選項, &lt;br&gt;驗證器政策, &lt;br&gt;挑戰碼(challenge)&lt;/font&gt;" style="text;html=1;align=center;verticalAlign=middle;whiteSpace=wrap;rounded=0;" vertex="1" parent="1">
          <mxGeometry x="880" y="1150" width="100" height="160" as="geometry" />
        </mxCell>
        <mxCell id="MtFkFNDyS-Lr--tjTS6Z-23" value="" style="curved=1;endArrow=classic;html=1;rounded=0;strokeWidth=1;" edge="1" parent="1">
          <mxGeometry width="50" height="50" relative="1" as="geometry">
            <mxPoint x="880.0039393939394" y="1320" as="sourcePoint" />
            <mxPoint x="880.0039393939394" y="1380" as="targetPoint" />
            <Array as="points">
              <mxPoint x="950" y="1320" />
              <mxPoint x="920" y="1380" />
            </Array>
          </mxGeometry>
        </mxCell>
        <mxCell id="MtFkFNDyS-Lr--tjTS6Z-31" value="&lt;span style=&quot;font-size: 18px;&quot;&gt;回傳註冊結果&lt;/span&gt;" style="text;html=1;align=center;verticalAlign=middle;whiteSpace=wrap;rounded=0;" vertex="1" parent="1">
          <mxGeometry x="580" y="1630" width="120" height="20" as="geometry" />
        </mxCell>
        <mxCell id="9rBJoFf6euYmi_4-r9ua-1" value="&lt;font style=&quot;font-size: 14px;&quot;&gt;Authenticator&lt;/font&gt;" style="shape=umlLifeline;perimeter=lifelinePerimeter;whiteSpace=wrap;html=1;container=1;collapsible=0;recursiveResize=0;outlineConnect=0;rounded=1;shadow=0;comic=0;labelBackgroundColor=none;strokeWidth=1;fontFamily=Verdana;fontSize=14;align=center;fillColor=#fff2cc;strokeColor=#990000;aspect=fixed;" vertex="1" parent="1">
          <mxGeometry x="214" y="80" width="95.45" height="1680" as="geometry" />
        </mxCell>
        <mxCell id="QVcSz2BidJpiBDjh0ldY-6" value="" style="html=1;points=[];perimeter=orthogonalPerimeter;rounded=0;shadow=0;comic=0;labelBackgroundColor=none;strokeWidth=1;fontFamily=Verdana;fontSize=12;align=center;" vertex="1" parent="9rBJoFf6euYmi_4-r9ua-1">
          <mxGeometry x="51" y="670" width="10" height="290" as="geometry" />
        </mxCell>
        <mxCell id="QVcSz2BidJpiBDjh0ldY-7" value="" style="html=1;points=[];perimeter=orthogonalPerimeter;rounded=0;shadow=0;comic=0;labelBackgroundColor=none;strokeWidth=1;fontFamily=Verdana;fontSize=12;align=center;" vertex="1" parent="9rBJoFf6euYmi_4-r9ua-1">
          <mxGeometry x="56" y="770" width="10" height="130" as="geometry" />
        </mxCell>
        <mxCell id="_blSvhzHI7yUFD_z-E3W-1" value="" style="html=1;verticalAlign=bottom;endArrow=open;dashed=1;endSize=8;labelBackgroundColor=none;fontFamily=Verdana;fontSize=12;edgeStyle=elbowEdgeStyle;elbow=vertical;strokeWidth=1;exitX=0.366;exitY=0.996;exitDx=0;exitDy=0;exitPerimeter=0;entryX=1.015;entryY=0.851;entryDx=0;entryDy=0;entryPerimeter=0;" edge="1" parent="1" source="zkOCBZDMIl6E29iJL5I4-1" target="Az09dQ2S-EzUo8NJq7P--1">
          <mxGeometry x="0.0019" relative="1" as="geometry">
            <mxPoint x="780" y="630" as="targetPoint" />
            <Array as="points">
              <mxPoint x="810" y="590" />
            </Array>
            <mxPoint x="842" y="589.9999999999999" as="sourcePoint" />
            <mxPoint as="offset" />
          </mxGeometry>
        </mxCell>
        <mxCell id="UMpmpk4vel-XyKgx27x_-2" value="&lt;span style=&quot;font-size: 18px;&quot;&gt;回傳&lt;/span&gt;" style="text;html=1;align=center;verticalAlign=middle;whiteSpace=wrap;rounded=0;" vertex="1" parent="1">
          <mxGeometry x="731" y="565" width="100" height="20" as="geometry" />
        </mxCell>
        <mxCell id="MtFkFNDyS-Lr--tjTS6Z-6" value="" style="html=1;verticalAlign=bottom;endArrow=open;dashed=1;endSize=8;labelBackgroundColor=none;fontFamily=Verdana;fontSize=12;edgeStyle=elbowEdgeStyle;elbow=vertical;strokeWidth=1;" edge="1" parent="1" source="9rBJoFf6euYmi_4-r9ua-3">
          <mxGeometry x="0.0019" relative="1" as="geometry">
            <mxPoint x="280" y="750" as="targetPoint" />
            <Array as="points">
              <mxPoint x="365.38" y="750" />
            </Array>
            <mxPoint x="410" y="750" as="sourcePoint" />
            <mxPoint as="offset" />
          </mxGeometry>
        </mxCell>
        <mxCell id="MtFkFNDyS-Lr--tjTS6Z-7" value="&lt;span style=&quot;font-size: 18px;&quot;&gt;觸發驗證&lt;/span&gt;" style="text;html=1;align=center;verticalAlign=middle;whiteSpace=wrap;rounded=0;" vertex="1" parent="1">
          <mxGeometry x="293" y="720" width="100" height="20" as="geometry" />
        </mxCell>
        <mxCell id="MtFkFNDyS-Lr--tjTS6Z-4" value="&lt;span style=&quot;color: rgb(0, 0, 0); font-family: Helvetica; font-size: 18px; font-style: normal; font-variant-ligatures: normal; font-variant-caps: normal; font-weight: 400; letter-spacing: normal; orphans: 2; text-align: center; text-indent: 0px; text-transform: none; widows: 2; word-spacing: 0px; -webkit-text-stroke-width: 0px; white-space: normal; background-color: rgb(251, 251, 251); text-decoration-thickness: initial; text-decoration-style: initial; text-decoration-color: initial; display: inline !important; float: none;&quot;&gt;發送註冊結果&lt;/span&gt;" style="text;whiteSpace=wrap;html=1;" vertex="1" parent="1">
          <mxGeometry x="280" y="1000" width="110" height="30" as="geometry" />
        </mxCell>
        <mxCell id="MtFkFNDyS-Lr--tjTS6Z-26" value="" style="html=1;verticalAlign=bottom;endArrow=open;dashed=1;endSize=8;labelBackgroundColor=none;fontFamily=Verdana;fontSize=12;edgeStyle=elbowEdgeStyle;elbow=vertical;strokeWidth=1;exitX=0.367;exitY=0.998;exitDx=0;exitDy=0;exitPerimeter=0;entryX=1.183;entryY=0.888;entryDx=0;entryDy=0;entryPerimeter=0;" edge="1" parent="1" source="MtFkFNDyS-Lr--tjTS6Z-35" target="QVcSz2BidJpiBDjh0ldY-9">
          <mxGeometry x="0.0019" relative="1" as="geometry">
            <mxPoint x="900" y="1560" as="targetPoint" />
            <Array as="points">
              <mxPoint x="931" y="1560" />
            </Array>
            <mxPoint x="971" y="1560" as="sourcePoint" />
            <mxPoint as="offset" />
          </mxGeometry>
        </mxCell>
        <mxCell id="MtFkFNDyS-Lr--tjTS6Z-27" value="&lt;span style=&quot;font-size: 18px;&quot;&gt;回傳結果&lt;/span&gt;" style="text;html=1;align=center;verticalAlign=middle;whiteSpace=wrap;rounded=0;" vertex="1" parent="1">
          <mxGeometry x="877" y="1530" width="120" height="20" as="geometry" />
        </mxCell>
        <mxCell id="MtFkFNDyS-Lr--tjTS6Z-24" value="&lt;div style=&quot;text-align: center;&quot;&gt;&lt;span style=&quot;background-color: initial; font-size: 18px;&quot;&gt;儲存註冊資料&lt;br&gt;與公鑰&lt;/span&gt;&lt;/div&gt;" style="text;whiteSpace=wrap;html=1;" vertex="1" parent="1">
          <mxGeometry x="887" y="1420" width="110" height="50" as="geometry" />
        </mxCell>
        <mxCell id="MtFkFNDyS-Lr--tjTS6Z-33" value="&lt;span style=&quot;font-size: 18px;&quot;&gt;完成註冊流程&lt;/span&gt;" style="text;html=1;align=center;verticalAlign=middle;whiteSpace=wrap;rounded=0;" vertex="1" parent="1">
          <mxGeometry x="136" y="1690" width="120" height="20" as="geometry" />
        </mxCell>
        <mxCell id="QVcSz2BidJpiBDjh0ldY-12" value="&lt;span style=&quot;font-size: 18px;&quot;&gt;回傳註冊結果&lt;/span&gt;" style="text;html=1;align=center;verticalAlign=middle;whiteSpace=wrap;rounded=0;" vertex="1" parent="1">
          <mxGeometry x="729" y="1580" width="120" height="20" as="geometry" />
        </mxCell>
      </root>
    </mxGraphModel>
  </diagram>
  <diagram id="S-NuuMKX4YBF9CsPsghN" name="系統認證">
    <mxGraphModel dx="2001" dy="1209" grid="1" gridSize="10" guides="1" tooltips="1" connect="1" arrows="1" fold="1" page="1" pageScale="1" pageWidth="827" pageHeight="1169" math="0" shadow="0">
      <root>
        <mxCell id="0" />
        <mxCell id="1" parent="0" />
        <mxCell id="K-BhNowa8yOW6yS8Bsob-1" value="&lt;font style=&quot;font-size: 14px;&quot;&gt;FIDO Client&lt;/font&gt;" style="shape=umlLifeline;perimeter=lifelinePerimeter;whiteSpace=wrap;html=1;container=1;collapsible=0;recursiveResize=0;outlineConnect=0;rounded=1;shadow=0;comic=0;labelBackgroundColor=none;strokeWidth=1;fontFamily=Verdana;fontSize=14;align=center;fillColor=#fff2cc;strokeColor=#990000;" vertex="1" parent="1">
          <mxGeometry x="363" y="80" width="100" height="1680" as="geometry" />
        </mxCell>
        <mxCell id="K-BhNowa8yOW6yS8Bsob-3" value="&lt;font style=&quot;font-size: 14px;&quot;&gt;Browser&lt;/font&gt;" style="shape=umlLifeline;perimeter=lifelinePerimeter;whiteSpace=wrap;html=1;container=1;collapsible=0;recursiveResize=0;outlineConnect=0;rounded=1;shadow=0;comic=0;labelBackgroundColor=none;strokeWidth=1;fontFamily=Verdana;fontSize=14;align=center;fillColor=#fff2cc;strokeColor=#990000;" vertex="1" parent="1">
          <mxGeometry x="512" y="80" width="100" height="1680" as="geometry" />
        </mxCell>
        <mxCell id="K-BhNowa8yOW6yS8Bsob-4" value="" style="html=1;points=[];perimeter=orthogonalPerimeter;rounded=0;shadow=0;comic=0;labelBackgroundColor=none;strokeWidth=1;fontFamily=Verdana;fontSize=12;align=center;" vertex="1" parent="K-BhNowa8yOW6yS8Bsob-3">
          <mxGeometry x="48" y="120" width="10" height="500" as="geometry" />
        </mxCell>
        <mxCell id="K-BhNowa8yOW6yS8Bsob-5" value="&lt;span style=&quot;color: rgb(0, 0, 0); font-family: Helvetica; font-size: 18px; font-style: normal; font-variant-ligatures: normal; font-variant-caps: normal; font-weight: 400; letter-spacing: normal; orphans: 2; text-align: center; text-indent: 0px; text-transform: none; widows: 2; word-spacing: 0px; -webkit-text-stroke-width: 0px; white-space: normal; background-color: rgb(251, 251, 251); text-decoration-thickness: initial; text-decoration-style: initial; text-decoration-color: initial; display: inline !important; float: none;&quot;&gt;發送認證結果&lt;/span&gt;" style="text;whiteSpace=wrap;html=1;" vertex="1" parent="K-BhNowa8yOW6yS8Bsob-3">
          <mxGeometry x="-82" y="970" width="110" height="30" as="geometry" />
        </mxCell>
        <mxCell id="K-BhNowa8yOW6yS8Bsob-6" value="" style="html=1;verticalAlign=bottom;endArrow=open;dashed=1;endSize=8;labelBackgroundColor=none;fontFamily=Verdana;fontSize=12;edgeStyle=elbowEdgeStyle;elbow=vertical;strokeWidth=1;entryX=0.5;entryY=0.909;entryDx=0;entryDy=0;entryPerimeter=0;" edge="1" parent="K-BhNowa8yOW6yS8Bsob-3" source="K-BhNowa8yOW6yS8Bsob-20">
          <mxGeometry x="0.0019" relative="1" as="geometry">
            <mxPoint x="50" y="1580.2399999999998" as="targetPoint" />
            <Array as="points">
              <mxPoint x="110" y="1580" />
            </Array>
            <mxPoint x="170" y="1580" as="sourcePoint" />
            <mxPoint as="offset" />
          </mxGeometry>
        </mxCell>
        <mxCell id="K-BhNowa8yOW6yS8Bsob-7" value="" style="html=1;verticalAlign=bottom;endArrow=open;dashed=1;endSize=8;labelBackgroundColor=none;fontFamily=Verdana;fontSize=12;edgeStyle=elbowEdgeStyle;elbow=vertical;strokeWidth=1;" edge="1" parent="K-BhNowa8yOW6yS8Bsob-3" target="K-BhNowa8yOW6yS8Bsob-1">
          <mxGeometry x="0.0019" relative="1" as="geometry">
            <mxPoint x="-70" y="620" as="targetPoint" />
            <Array as="points">
              <mxPoint x="-20" y="620" />
            </Array>
            <mxPoint x="50" y="620" as="sourcePoint" />
            <mxPoint as="offset" />
          </mxGeometry>
        </mxCell>
        <mxCell id="K-BhNowa8yOW6yS8Bsob-8" value="" style="endArrow=classic;html=1;rounded=0;strokeWidth=1;" edge="1" parent="K-BhNowa8yOW6yS8Bsob-3" target="K-BhNowa8yOW6yS8Bsob-3">
          <mxGeometry width="50" height="50" relative="1" as="geometry">
            <mxPoint x="-97.9951612903227" y="1010" as="sourcePoint" />
            <mxPoint x="24.5" y="1010" as="targetPoint" />
          </mxGeometry>
        </mxCell>
        <mxCell id="K-BhNowa8yOW6yS8Bsob-9" value="" style="endArrow=classic;html=1;rounded=0;strokeWidth=1;" edge="1" parent="K-BhNowa8yOW6yS8Bsob-3">
          <mxGeometry width="50" height="50" relative="1" as="geometry">
            <mxPoint x="50" y="1050" as="sourcePoint" />
            <mxPoint x="201.5" y="1050" as="targetPoint" />
          </mxGeometry>
        </mxCell>
        <mxCell id="K-BhNowa8yOW6yS8Bsob-10" value="" style="html=1;verticalAlign=bottom;endArrow=open;dashed=1;endSize=8;labelBackgroundColor=none;fontFamily=Verdana;fontSize=12;edgeStyle=elbowEdgeStyle;elbow=vertical;strokeWidth=1;" edge="1" parent="K-BhNowa8yOW6yS8Bsob-3">
          <mxGeometry x="0.0019" relative="1" as="geometry">
            <mxPoint x="-392" y="1640" as="targetPoint" />
            <Array as="points">
              <mxPoint x="-6.25" y="1640" />
            </Array>
            <mxPoint x="50" y="1640" as="sourcePoint" />
            <mxPoint as="offset" />
          </mxGeometry>
        </mxCell>
        <mxCell id="K-BhNowa8yOW6yS8Bsob-11" value="&lt;font style=&quot;font-size: 14px;&quot;&gt;FIDO Server&lt;/font&gt;" style="shape=umlLifeline;perimeter=lifelinePerimeter;whiteSpace=wrap;html=1;container=1;collapsible=0;recursiveResize=0;outlineConnect=0;rounded=1;shadow=0;comic=0;labelBackgroundColor=none;strokeWidth=1;fontFamily=Verdana;fontSize=12;align=center;fillColor=#fff2cc;strokeColor=#990000;" vertex="1" parent="1">
          <mxGeometry x="811" y="80" width="100" height="1680" as="geometry" />
        </mxCell>
        <mxCell id="K-BhNowa8yOW6yS8Bsob-12" value="" style="endArrow=classic;html=1;rounded=0;strokeWidth=1;exitX=0.974;exitY=0.123;exitDx=0;exitDy=0;exitPerimeter=0;" edge="1" parent="K-BhNowa8yOW6yS8Bsob-11" source="K-BhNowa8yOW6yS8Bsob-24">
          <mxGeometry width="50" height="50" relative="1" as="geometry">
            <mxPoint x="-101" y="220" as="sourcePoint" />
            <mxPoint x="39" y="220" as="targetPoint" />
            <Array as="points" />
          </mxGeometry>
        </mxCell>
        <mxCell id="K-BhNowa8yOW6yS8Bsob-13" value="" style="html=1;points=[];perimeter=orthogonalPerimeter;rounded=0;shadow=0;comic=0;labelBackgroundColor=none;strokeWidth=1;fontFamily=Verdana;fontSize=12;align=center;" vertex="1" parent="K-BhNowa8yOW6yS8Bsob-11">
          <mxGeometry x="40" y="220" width="10" height="290" as="geometry" />
        </mxCell>
        <mxCell id="K-BhNowa8yOW6yS8Bsob-14" value="" style="html=1;points=[];perimeter=orthogonalPerimeter;rounded=0;shadow=0;comic=0;labelBackgroundColor=none;strokeWidth=1;fontFamily=Verdana;fontSize=12;align=center;" vertex="1" parent="K-BhNowa8yOW6yS8Bsob-11">
          <mxGeometry x="45" y="320" width="10" height="130" as="geometry" />
        </mxCell>
        <mxCell id="K-BhNowa8yOW6yS8Bsob-15" value="&lt;span style=&quot;color: rgb(0, 0, 0); font-family: Helvetica; font-size: 18px; font-style: normal; font-variant-ligatures: normal; font-variant-caps: normal; font-weight: 400; letter-spacing: normal; orphans: 2; text-align: center; text-indent: 0px; text-transform: none; widows: 2; word-spacing: 0px; -webkit-text-stroke-width: 0px; white-space: normal; background-color: rgb(251, 251, 251); text-decoration-thickness: initial; text-decoration-style: initial; text-decoration-color: initial; display: inline !important; float: none;&quot;&gt;發送認證結果&lt;/span&gt;" style="text;whiteSpace=wrap;html=1;" vertex="1" parent="K-BhNowa8yOW6yS8Bsob-11">
          <mxGeometry x="-78" y="1055" width="110" height="30" as="geometry" />
        </mxCell>
        <mxCell id="K-BhNowa8yOW6yS8Bsob-16" value="" style="endArrow=classic;html=1;rounded=0;strokeWidth=1;" edge="1" parent="K-BhNowa8yOW6yS8Bsob-11" target="K-BhNowa8yOW6yS8Bsob-11">
          <mxGeometry width="50" height="50" relative="1" as="geometry">
            <mxPoint x="-91.5" y="1090" as="sourcePoint" />
            <mxPoint x="39" y="1090" as="targetPoint" />
          </mxGeometry>
        </mxCell>
        <mxCell id="K-BhNowa8yOW6yS8Bsob-17" value="" style="html=1;points=[];perimeter=orthogonalPerimeter;rounded=0;shadow=0;comic=0;labelBackgroundColor=none;strokeWidth=1;fontFamily=Verdana;fontSize=12;align=center;" vertex="1" parent="K-BhNowa8yOW6yS8Bsob-11">
          <mxGeometry x="50" y="1089" width="10" height="441" as="geometry" />
        </mxCell>
        <mxCell id="K-BhNowa8yOW6yS8Bsob-18" value="" style="html=1;points=[];perimeter=orthogonalPerimeter;rounded=0;shadow=0;comic=0;labelBackgroundColor=none;strokeWidth=1;fontFamily=Verdana;fontSize=12;align=center;" vertex="1" parent="K-BhNowa8yOW6yS8Bsob-11">
          <mxGeometry x="55" y="1320" width="10" height="190" as="geometry" />
        </mxCell>
        <mxCell id="K-BhNowa8yOW6yS8Bsob-19" value="" style="html=1;verticalAlign=bottom;endArrow=open;dashed=1;endSize=8;labelBackgroundColor=none;fontFamily=Verdana;fontSize=12;edgeStyle=elbowEdgeStyle;elbow=vertical;strokeWidth=1;entryX=0.5;entryY=0.909;entryDx=0;entryDy=0;entryPerimeter=0;" edge="1" parent="K-BhNowa8yOW6yS8Bsob-11" source="K-BhNowa8yOW6yS8Bsob-11">
          <mxGeometry x="0.0019" relative="1" as="geometry">
            <mxPoint x="-90" y="1530.2399999999998" as="targetPoint" />
            <Array as="points">
              <mxPoint x="-30" y="1530" />
            </Array>
            <mxPoint x="39" y="1530" as="sourcePoint" />
            <mxPoint as="offset" />
          </mxGeometry>
        </mxCell>
        <mxCell id="K-BhNowa8yOW6yS8Bsob-20" value="&lt;font style=&quot;font-size: 14px;&quot;&gt;Web Server&lt;/font&gt;" style="shape=umlLifeline;perimeter=lifelinePerimeter;whiteSpace=wrap;html=1;container=1;collapsible=0;recursiveResize=0;outlineConnect=0;rounded=1;shadow=0;comic=0;labelBackgroundColor=none;strokeWidth=1;fontFamily=Verdana;fontSize=12;align=center;fillColor=#fff2cc;strokeColor=#990000;" vertex="1" parent="1">
          <mxGeometry x="662" y="80" width="100" height="1680" as="geometry" />
        </mxCell>
        <mxCell id="K-BhNowa8yOW6yS8Bsob-21" value="&lt;font style=&quot;font-size: 18px;&quot;&gt;啟動認證流程&lt;/font&gt;" style="text;html=1;align=center;verticalAlign=middle;whiteSpace=wrap;rounded=0;" vertex="1" parent="K-BhNowa8yOW6yS8Bsob-20">
          <mxGeometry x="-90" y="130" width="130" height="30" as="geometry" />
        </mxCell>
        <mxCell id="K-BhNowa8yOW6yS8Bsob-22" value="" style="html=1;points=[];perimeter=orthogonalPerimeter;rounded=0;shadow=0;comic=0;labelBackgroundColor=none;strokeWidth=1;fontFamily=Verdana;fontSize=12;align=center;" vertex="1" parent="K-BhNowa8yOW6yS8Bsob-20">
          <mxGeometry x="50" y="1050" width="10" height="530" as="geometry" />
        </mxCell>
        <mxCell id="K-BhNowa8yOW6yS8Bsob-23" value="" style="endArrow=classic;html=1;rounded=0;strokeWidth=1;" edge="1" parent="K-BhNowa8yOW6yS8Bsob-20" target="K-BhNowa8yOW6yS8Bsob-20">
          <mxGeometry width="50" height="50" relative="1" as="geometry">
            <mxPoint x="-92" y="170" as="sourcePoint" />
            <mxPoint x="40" y="170" as="targetPoint" />
          </mxGeometry>
        </mxCell>
        <mxCell id="K-BhNowa8yOW6yS8Bsob-24" value="" style="html=1;points=[];perimeter=orthogonalPerimeter;rounded=0;shadow=0;comic=0;labelBackgroundColor=none;strokeWidth=1;fontFamily=Verdana;fontSize=12;align=center;" vertex="1" parent="K-BhNowa8yOW6yS8Bsob-20">
          <mxGeometry x="50" y="170" width="10" height="400" as="geometry" />
        </mxCell>
        <mxCell id="K-BhNowa8yOW6yS8Bsob-25" value="&lt;font style=&quot;font-size: 30px;&quot;&gt;Actor&lt;/font&gt;" style="shape=umlActor;verticalLabelPosition=bottom;verticalAlign=top;html=1;outlineConnect=0;fontSize=30;" vertex="1" parent="1">
          <mxGeometry x="100" y="80" width="30" height="60" as="geometry" />
        </mxCell>
        <mxCell id="K-BhNowa8yOW6yS8Bsob-26" value="&lt;font style=&quot;font-size: 30px;&quot;&gt;Client&lt;/font&gt;" style="shape=note;whiteSpace=wrap;html=1;size=14;verticalAlign=top;align=center;spacingTop=-6;rounded=0;shadow=0;comic=0;labelBackgroundColor=none;strokeWidth=1;fontFamily=Verdana;fontSize=12;fillColor=#d5e8d4;strokeColor=#82b366;" vertex="1" parent="1">
          <mxGeometry x="214" y="30" width="396" height="40" as="geometry" />
        </mxCell>
        <mxCell id="K-BhNowa8yOW6yS8Bsob-27" value="&lt;font style=&quot;font-size: 30px;&quot;&gt;Server&lt;/font&gt;" style="shape=note;whiteSpace=wrap;html=1;size=14;verticalAlign=top;align=center;spacingTop=-6;rounded=0;shadow=0;comic=0;labelBackgroundColor=none;strokeWidth=1;fontFamily=Verdana;fontSize=12;fillColor=#dae8fc;strokeColor=#6c8ebf;" vertex="1" parent="1">
          <mxGeometry x="661" y="30" width="400" height="40" as="geometry" />
        </mxCell>
        <mxCell id="K-BhNowa8yOW6yS8Bsob-28" value="&lt;font style=&quot;font-size: 14px;&quot;&gt;Database Server&lt;/font&gt;" style="shape=umlLifeline;perimeter=lifelinePerimeter;whiteSpace=wrap;html=1;container=1;collapsible=0;recursiveResize=0;outlineConnect=0;rounded=1;shadow=0;comic=0;labelBackgroundColor=none;strokeWidth=1;fontFamily=Verdana;fontSize=12;align=center;fillColor=#fff2cc;strokeColor=#990000;fixedWidth=0;" vertex="1" parent="1">
          <mxGeometry x="960" y="80" width="100" height="1680" as="geometry" />
        </mxCell>
        <mxCell id="K-BhNowa8yOW6yS8Bsob-29" value="" style="html=1;points=[];perimeter=orthogonalPerimeter;rounded=0;shadow=0;comic=0;labelBackgroundColor=none;strokeWidth=1;fontFamily=Verdana;fontSize=12;align=center;" vertex="1" parent="K-BhNowa8yOW6yS8Bsob-28">
          <mxGeometry x="50" y="1170" width="10" height="80" as="geometry" />
        </mxCell>
        <mxCell id="K-BhNowa8yOW6yS8Bsob-54" value="" style="html=1;verticalAlign=bottom;endArrow=open;dashed=1;endSize=8;labelBackgroundColor=none;fontFamily=Verdana;fontSize=12;edgeStyle=elbowEdgeStyle;elbow=vertical;strokeWidth=1;exitX=0.367;exitY=0.998;exitDx=0;exitDy=0;exitPerimeter=0;entryX=1.183;entryY=0.888;entryDx=0;entryDy=0;entryPerimeter=0;" edge="1" parent="K-BhNowa8yOW6yS8Bsob-28">
          <mxGeometry x="0.0019" relative="1" as="geometry">
            <mxPoint x="-90.84000000000007" y="1250.7680000000003" as="targetPoint" />
            <Array as="points">
              <mxPoint x="-32.67" y="1250.16" />
            </Array>
            <mxPoint x="50.00000000000007" y="1250.0000000000002" as="sourcePoint" />
            <mxPoint as="offset" />
          </mxGeometry>
        </mxCell>
        <mxCell id="K-BhNowa8yOW6yS8Bsob-31" value="" style="endArrow=none;dashed=1;html=1;rounded=0;strokeColor=#990000;" edge="1" parent="1">
          <mxGeometry width="50" height="50" relative="1" as="geometry">
            <mxPoint x="120" y="1760" as="sourcePoint" />
            <mxPoint x="120" y="200" as="targetPoint" />
          </mxGeometry>
        </mxCell>
        <mxCell id="K-BhNowa8yOW6yS8Bsob-32" value="&lt;font style=&quot;font-size: 18px;&quot;&gt;輸入使用者名稱&lt;/font&gt;" style="text;html=1;align=center;verticalAlign=middle;whiteSpace=wrap;rounded=0;" vertex="1" parent="1">
          <mxGeometry x="280" y="170" width="130" height="30" as="geometry" />
        </mxCell>
        <mxCell id="K-BhNowa8yOW6yS8Bsob-33" value="&lt;font style=&quot;font-size: 18px;&quot;&gt;產生&lt;br&gt;認證選項, &lt;br&gt;驗證器政策, &lt;br&gt;挑戰碼(challenge)&lt;/font&gt;" style="text;html=1;align=center;verticalAlign=middle;whiteSpace=wrap;rounded=0;" vertex="1" parent="1">
          <mxGeometry x="880" y="300" width="100" height="160" as="geometry" />
        </mxCell>
        <mxCell id="K-BhNowa8yOW6yS8Bsob-34" value="&lt;span style=&quot;font-size: 18px;&quot;&gt;回傳&lt;/span&gt;" style="text;html=1;align=center;verticalAlign=middle;whiteSpace=wrap;rounded=0;" vertex="1" parent="1">
          <mxGeometry x="588" y="620" width="100" height="20" as="geometry" />
        </mxCell>
        <mxCell id="K-BhNowa8yOW6yS8Bsob-35" value="&lt;font style=&quot;font-size: 18px;&quot;&gt;系統認證&lt;/font&gt;" style="text;html=1;align=center;verticalAlign=middle;whiteSpace=wrap;rounded=0;" vertex="1" parent="1">
          <mxGeometry x="737" y="260" width="90" height="30" as="geometry" />
        </mxCell>
        <mxCell id="K-BhNowa8yOW6yS8Bsob-36" value="" style="curved=1;endArrow=classic;html=1;rounded=0;strokeWidth=1;" edge="1" parent="1">
          <mxGeometry width="50" height="50" relative="1" as="geometry">
            <mxPoint x="870.0039393939394" y="450" as="sourcePoint" />
            <mxPoint x="870.0039393939394" y="510" as="targetPoint" />
            <Array as="points">
              <mxPoint x="940" y="450" />
              <mxPoint x="910" y="510" />
            </Array>
          </mxGeometry>
        </mxCell>
        <mxCell id="K-BhNowa8yOW6yS8Bsob-37" value="" style="curved=1;endArrow=classic;html=1;rounded=0;strokeWidth=1;" edge="1" parent="1">
          <mxGeometry width="50" height="50" relative="1" as="geometry">
            <mxPoint x="280.0039393939394" y="891" as="sourcePoint" />
            <mxPoint x="280.0039393939394" y="951" as="targetPoint" />
            <Array as="points">
              <mxPoint x="350" y="890" />
              <mxPoint x="320" y="950" />
            </Array>
          </mxGeometry>
        </mxCell>
        <mxCell id="K-BhNowa8yOW6yS8Bsob-38" value="" style="endArrow=classic;html=1;rounded=0;strokeWidth=1;" edge="1" parent="1" target="K-BhNowa8yOW6yS8Bsob-1">
          <mxGeometry width="50" height="50" relative="1" as="geometry">
            <mxPoint x="270.5048387096773" y="1040" as="sourcePoint" />
            <mxPoint x="393" y="1040" as="targetPoint" />
          </mxGeometry>
        </mxCell>
        <mxCell id="K-BhNowa8yOW6yS8Bsob-39" value="&lt;span style=&quot;font-size: 18px;&quot;&gt;回傳&lt;/span&gt;" style="text;html=1;align=center;verticalAlign=middle;whiteSpace=wrap;rounded=0;" vertex="1" parent="1">
          <mxGeometry x="433" y="670" width="100" height="20" as="geometry" />
        </mxCell>
        <mxCell id="K-BhNowa8yOW6yS8Bsob-40" value="&lt;span style=&quot;font-size: 18px;&quot;&gt;使用私鑰&lt;br&gt;簽署挑戰碼&lt;br&gt;&lt;/span&gt;" style="text;html=1;align=center;verticalAlign=middle;whiteSpace=wrap;rounded=0;" vertex="1" parent="1">
          <mxGeometry x="293" y="830" width="100" height="60" as="geometry" />
        </mxCell>
        <mxCell id="K-BhNowa8yOW6yS8Bsob-41" value="&lt;span style=&quot;color: rgb(0, 0, 0); font-family: Helvetica; font-size: 18px; font-style: normal; font-variant-ligatures: normal; font-variant-caps: normal; font-weight: 400; letter-spacing: normal; orphans: 2; text-align: center; text-indent: 0px; text-transform: none; widows: 2; word-spacing: 0px; -webkit-text-stroke-width: 0px; white-space: normal; background-color: rgb(251, 251, 251); text-decoration-thickness: initial; text-decoration-style: initial; text-decoration-color: initial; display: inline !important; float: none;&quot;&gt;發送認證結果&lt;/span&gt;" style="text;whiteSpace=wrap;html=1;" vertex="1" parent="1">
          <mxGeometry x="576" y="1090" width="110" height="30" as="geometry" />
        </mxCell>
        <mxCell id="K-BhNowa8yOW6yS8Bsob-42" value="&lt;font style=&quot;font-size: 18px;&quot;&gt;驗證&lt;br&gt;認證選項, &lt;br&gt;驗證器政策, &lt;br&gt;挑戰碼(challenge)&lt;/font&gt;" style="text;html=1;align=center;verticalAlign=middle;whiteSpace=wrap;rounded=0;" vertex="1" parent="1">
          <mxGeometry x="885" y="1390" width="100" height="120" as="geometry" />
        </mxCell>
        <mxCell id="K-BhNowa8yOW6yS8Bsob-43" value="" style="curved=1;endArrow=classic;html=1;rounded=0;strokeWidth=1;" edge="1" parent="1">
          <mxGeometry width="50" height="50" relative="1" as="geometry">
            <mxPoint x="880.0039393939394" y="1520" as="sourcePoint" />
            <mxPoint x="880.0039393939394" y="1580" as="targetPoint" />
            <Array as="points">
              <mxPoint x="950" y="1520" />
              <mxPoint x="920" y="1580" />
            </Array>
          </mxGeometry>
        </mxCell>
        <mxCell id="K-BhNowa8yOW6yS8Bsob-44" value="&lt;span style=&quot;font-size: 18px;&quot;&gt;回傳認證結果&lt;/span&gt;" style="text;html=1;align=center;verticalAlign=middle;whiteSpace=wrap;rounded=0;" vertex="1" parent="1">
          <mxGeometry x="580" y="1630" width="120" height="20" as="geometry" />
        </mxCell>
        <mxCell id="K-BhNowa8yOW6yS8Bsob-45" value="&lt;font style=&quot;font-size: 14px;&quot;&gt;Authenticator&lt;/font&gt;" style="shape=umlLifeline;perimeter=lifelinePerimeter;whiteSpace=wrap;html=1;container=1;collapsible=0;recursiveResize=0;outlineConnect=0;rounded=1;shadow=0;comic=0;labelBackgroundColor=none;strokeWidth=1;fontFamily=Verdana;fontSize=14;align=center;fillColor=#fff2cc;strokeColor=#990000;aspect=fixed;" vertex="1" parent="1">
          <mxGeometry x="214" y="80" width="95.45" height="1680" as="geometry" />
        </mxCell>
        <mxCell id="K-BhNowa8yOW6yS8Bsob-46" value="" style="html=1;points=[];perimeter=orthogonalPerimeter;rounded=0;shadow=0;comic=0;labelBackgroundColor=none;strokeWidth=1;fontFamily=Verdana;fontSize=12;align=center;" vertex="1" parent="K-BhNowa8yOW6yS8Bsob-45">
          <mxGeometry x="51" y="670" width="10" height="290" as="geometry" />
        </mxCell>
        <mxCell id="K-BhNowa8yOW6yS8Bsob-47" value="" style="html=1;points=[];perimeter=orthogonalPerimeter;rounded=0;shadow=0;comic=0;labelBackgroundColor=none;strokeWidth=1;fontFamily=Verdana;fontSize=12;align=center;" vertex="1" parent="K-BhNowa8yOW6yS8Bsob-45">
          <mxGeometry x="56" y="770" width="10" height="130" as="geometry" />
        </mxCell>
        <mxCell id="K-BhNowa8yOW6yS8Bsob-48" value="" style="html=1;verticalAlign=bottom;endArrow=open;dashed=1;endSize=8;labelBackgroundColor=none;fontFamily=Verdana;fontSize=12;edgeStyle=elbowEdgeStyle;elbow=vertical;strokeWidth=1;exitX=0.366;exitY=0.996;exitDx=0;exitDy=0;exitPerimeter=0;entryX=1.015;entryY=0.851;entryDx=0;entryDy=0;entryPerimeter=0;" edge="1" parent="1" source="K-BhNowa8yOW6yS8Bsob-13" target="K-BhNowa8yOW6yS8Bsob-24">
          <mxGeometry x="0.0019" relative="1" as="geometry">
            <mxPoint x="780" y="630" as="targetPoint" />
            <Array as="points">
              <mxPoint x="810" y="590" />
            </Array>
            <mxPoint x="842" y="589.9999999999999" as="sourcePoint" />
            <mxPoint as="offset" />
          </mxGeometry>
        </mxCell>
        <mxCell id="K-BhNowa8yOW6yS8Bsob-49" value="&lt;span style=&quot;font-size: 18px;&quot;&gt;回傳&lt;/span&gt;" style="text;html=1;align=center;verticalAlign=middle;whiteSpace=wrap;rounded=0;" vertex="1" parent="1">
          <mxGeometry x="734" y="565" width="100" height="20" as="geometry" />
        </mxCell>
        <mxCell id="K-BhNowa8yOW6yS8Bsob-50" value="" style="html=1;verticalAlign=bottom;endArrow=open;dashed=1;endSize=8;labelBackgroundColor=none;fontFamily=Verdana;fontSize=12;edgeStyle=elbowEdgeStyle;elbow=vertical;strokeWidth=1;entryX=1.12;entryY=0.901;entryDx=0;entryDy=0;entryPerimeter=0;" edge="1" parent="1" source="K-BhNowa8yOW6yS8Bsob-20" target="K-BhNowa8yOW6yS8Bsob-4">
          <mxGeometry x="0.0019" relative="1" as="geometry">
            <mxPoint x="580" y="650" as="targetPoint" />
            <Array as="points">
              <mxPoint x="632" y="650" />
            </Array>
            <mxPoint x="702" y="650" as="sourcePoint" />
            <mxPoint as="offset" />
          </mxGeometry>
        </mxCell>
        <mxCell id="K-BhNowa8yOW6yS8Bsob-51" value="" style="html=1;verticalAlign=bottom;endArrow=open;dashed=1;endSize=8;labelBackgroundColor=none;fontFamily=Verdana;fontSize=12;edgeStyle=elbowEdgeStyle;elbow=vertical;strokeWidth=1;" edge="1" parent="1" source="K-BhNowa8yOW6yS8Bsob-1">
          <mxGeometry x="0.0019" relative="1" as="geometry">
            <mxPoint x="280" y="750" as="targetPoint" />
            <Array as="points">
              <mxPoint x="365.38" y="750" />
            </Array>
            <mxPoint x="410" y="750" as="sourcePoint" />
            <mxPoint as="offset" />
          </mxGeometry>
        </mxCell>
        <mxCell id="K-BhNowa8yOW6yS8Bsob-52" value="&lt;span style=&quot;font-size: 18px;&quot;&gt;觸發驗證&lt;/span&gt;" style="text;html=1;align=center;verticalAlign=middle;whiteSpace=wrap;rounded=0;" vertex="1" parent="1">
          <mxGeometry x="293" y="720" width="100" height="20" as="geometry" />
        </mxCell>
        <mxCell id="K-BhNowa8yOW6yS8Bsob-53" value="&lt;span style=&quot;color: rgb(0, 0, 0); font-family: Helvetica; font-size: 18px; font-style: normal; font-variant-ligatures: normal; font-variant-caps: normal; font-weight: 400; letter-spacing: normal; orphans: 2; text-align: center; text-indent: 0px; text-transform: none; widows: 2; word-spacing: 0px; -webkit-text-stroke-width: 0px; white-space: normal; background-color: rgb(251, 251, 251); text-decoration-thickness: initial; text-decoration-style: initial; text-decoration-color: initial; display: inline !important; float: none;&quot;&gt;發送認證結果&lt;/span&gt;" style="text;whiteSpace=wrap;html=1;" vertex="1" parent="1">
          <mxGeometry x="280" y="1000" width="110" height="30" as="geometry" />
        </mxCell>
        <mxCell id="K-BhNowa8yOW6yS8Bsob-55" value="&lt;span style=&quot;font-size: 18px;&quot;&gt;回傳使用者&lt;br&gt;公鑰&lt;/span&gt;" style="text;html=1;align=center;verticalAlign=middle;whiteSpace=wrap;rounded=0;" vertex="1" parent="1">
          <mxGeometry x="880" y="1280" width="120" height="40" as="geometry" />
        </mxCell>
        <mxCell id="K-BhNowa8yOW6yS8Bsob-56" value="&lt;div style=&quot;&quot;&gt;&lt;span style=&quot;font-size: 18px;&quot;&gt;取得使用者&lt;br&gt;公鑰&lt;/span&gt;&lt;/div&gt;" style="text;whiteSpace=wrap;html=1;align=center;" vertex="1" parent="1">
          <mxGeometry x="880" y="1190" width="110" height="50" as="geometry" />
        </mxCell>
        <mxCell id="K-BhNowa8yOW6yS8Bsob-57" value="&lt;span style=&quot;font-size: 18px;&quot;&gt;完成認證流程&lt;/span&gt;" style="text;html=1;align=center;verticalAlign=middle;whiteSpace=wrap;rounded=0;" vertex="1" parent="1">
          <mxGeometry x="136" y="1690" width="120" height="20" as="geometry" />
        </mxCell>
        <mxCell id="K-BhNowa8yOW6yS8Bsob-58" value="&lt;span style=&quot;font-size: 18px;&quot;&gt;回傳認證結果&lt;/span&gt;" style="text;html=1;align=center;verticalAlign=middle;whiteSpace=wrap;rounded=0;" vertex="1" parent="1">
          <mxGeometry x="729" y="1580" width="120" height="20" as="geometry" />
        </mxCell>
        <mxCell id="K-BhNowa8yOW6yS8Bsob-30" value="" style="endArrow=classic;html=1;rounded=0;strokeWidth=1;exitX=1.086;exitY=0.691;exitDx=0;exitDy=0;exitPerimeter=0;" edge="1" parent="1">
          <mxGeometry width="50" height="50" relative="1" as="geometry">
            <mxPoint x="871.8599999999997" y="1250.0000000000002" as="sourcePoint" />
            <mxPoint x="1010" y="1250.0000000000002" as="targetPoint" />
          </mxGeometry>
        </mxCell>
        <mxCell id="K-BhNowa8yOW6yS8Bsob-2" value="" style="endArrow=classic;html=1;rounded=0;strokeWidth=1;entryX=0.5;entryY=0;entryDx=0;entryDy=0;entryPerimeter=0;" edge="1" parent="1" target="K-BhNowa8yOW6yS8Bsob-4">
          <mxGeometry width="50" height="50" relative="1" as="geometry">
            <mxPoint x="120" y="200" as="sourcePoint" />
            <mxPoint x="510" y="200" as="targetPoint" />
          </mxGeometry>
        </mxCell>
      </root>
    </mxGraphModel>
  </diagram>
  <diagram id="6HPIa_NkjPGJt8VlKm5p" name="二次身份驗證">
    <mxGraphModel dx="1766" dy="1067" grid="1" gridSize="10" guides="1" tooltips="1" connect="1" arrows="1" fold="1" page="1" pageScale="1" pageWidth="827" pageHeight="1169" math="0" shadow="0">
      <root>
        <mxCell id="0" />
        <mxCell id="1" parent="0" />
        <mxCell id="_J1StjP0gH5-haKna9LU-1" value="&lt;font style=&quot;font-size: 14px;&quot;&gt;FIDO Client&lt;/font&gt;" style="shape=umlLifeline;perimeter=lifelinePerimeter;whiteSpace=wrap;html=1;container=1;collapsible=0;recursiveResize=0;outlineConnect=0;rounded=1;shadow=0;comic=0;labelBackgroundColor=none;strokeWidth=1;fontFamily=Verdana;fontSize=14;align=center;fillColor=#fff2cc;strokeColor=#990000;" vertex="1" parent="1">
          <mxGeometry x="363" y="80" width="100" height="1680" as="geometry" />
        </mxCell>
        <mxCell id="_J1StjP0gH5-haKna9LU-2" value="" style="endArrow=classic;html=1;rounded=0;strokeWidth=1;" edge="1" parent="_J1StjP0gH5-haKna9LU-1" target="_J1StjP0gH5-haKna9LU-3">
          <mxGeometry width="50" height="50" relative="1" as="geometry">
            <mxPoint x="-243" y="120" as="sourcePoint" />
            <mxPoint x="117" y="120" as="targetPoint" />
          </mxGeometry>
        </mxCell>
        <mxCell id="_J1StjP0gH5-haKna9LU-3" value="&lt;font style=&quot;font-size: 14px;&quot;&gt;Browser&lt;/font&gt;" style="shape=umlLifeline;perimeter=lifelinePerimeter;whiteSpace=wrap;html=1;container=1;collapsible=0;recursiveResize=0;outlineConnect=0;rounded=1;shadow=0;comic=0;labelBackgroundColor=none;strokeWidth=1;fontFamily=Verdana;fontSize=14;align=center;fillColor=#fff2cc;strokeColor=#990000;" vertex="1" parent="1">
          <mxGeometry x="512" y="80" width="100" height="1680" as="geometry" />
        </mxCell>
        <mxCell id="_J1StjP0gH5-haKna9LU-4" value="" style="html=1;points=[];perimeter=orthogonalPerimeter;rounded=0;shadow=0;comic=0;labelBackgroundColor=none;strokeWidth=1;fontFamily=Verdana;fontSize=12;align=center;" vertex="1" parent="_J1StjP0gH5-haKna9LU-3">
          <mxGeometry x="48" y="120" width="10" height="500" as="geometry" />
        </mxCell>
        <mxCell id="_J1StjP0gH5-haKna9LU-5" value="&lt;span style=&quot;color: rgb(0, 0, 0); font-family: Helvetica; font-size: 18px; font-style: normal; font-variant-ligatures: normal; font-variant-caps: normal; font-weight: 400; letter-spacing: normal; orphans: 2; text-align: center; text-indent: 0px; text-transform: none; widows: 2; word-spacing: 0px; -webkit-text-stroke-width: 0px; white-space: normal; background-color: rgb(251, 251, 251); text-decoration-thickness: initial; text-decoration-style: initial; text-decoration-color: initial; display: inline !important; float: none;&quot;&gt;發送註冊結果&lt;/span&gt;" style="text;whiteSpace=wrap;html=1;" vertex="1" parent="_J1StjP0gH5-haKna9LU-3">
          <mxGeometry x="-82" y="970" width="110" height="30" as="geometry" />
        </mxCell>
        <mxCell id="_J1StjP0gH5-haKna9LU-6" value="" style="html=1;verticalAlign=bottom;endArrow=open;dashed=1;endSize=8;labelBackgroundColor=none;fontFamily=Verdana;fontSize=12;edgeStyle=elbowEdgeStyle;elbow=vertical;strokeWidth=1;entryX=0.5;entryY=0.909;entryDx=0;entryDy=0;entryPerimeter=0;" edge="1" parent="_J1StjP0gH5-haKna9LU-3" source="_J1StjP0gH5-haKna9LU-20">
          <mxGeometry x="0.0019" relative="1" as="geometry">
            <mxPoint x="50" y="1580.2399999999998" as="targetPoint" />
            <Array as="points">
              <mxPoint x="110" y="1580" />
            </Array>
            <mxPoint x="170" y="1580" as="sourcePoint" />
            <mxPoint as="offset" />
          </mxGeometry>
        </mxCell>
        <mxCell id="_J1StjP0gH5-haKna9LU-7" value="" style="html=1;verticalAlign=bottom;endArrow=open;dashed=1;endSize=8;labelBackgroundColor=none;fontFamily=Verdana;fontSize=12;edgeStyle=elbowEdgeStyle;elbow=vertical;strokeWidth=1;" edge="1" parent="_J1StjP0gH5-haKna9LU-3" target="_J1StjP0gH5-haKna9LU-1">
          <mxGeometry x="0.0019" relative="1" as="geometry">
            <mxPoint x="-70" y="620" as="targetPoint" />
            <Array as="points">
              <mxPoint x="-20" y="620" />
            </Array>
            <mxPoint x="50" y="620" as="sourcePoint" />
            <mxPoint as="offset" />
          </mxGeometry>
        </mxCell>
        <mxCell id="_J1StjP0gH5-haKna9LU-8" value="" style="endArrow=classic;html=1;rounded=0;strokeWidth=1;" edge="1" parent="_J1StjP0gH5-haKna9LU-3" target="_J1StjP0gH5-haKna9LU-3">
          <mxGeometry width="50" height="50" relative="1" as="geometry">
            <mxPoint x="-97.9951612903227" y="1010" as="sourcePoint" />
            <mxPoint x="24.5" y="1010" as="targetPoint" />
          </mxGeometry>
        </mxCell>
        <mxCell id="_J1StjP0gH5-haKna9LU-9" value="" style="endArrow=classic;html=1;rounded=0;strokeWidth=1;" edge="1" parent="_J1StjP0gH5-haKna9LU-3">
          <mxGeometry width="50" height="50" relative="1" as="geometry">
            <mxPoint x="50" y="1050" as="sourcePoint" />
            <mxPoint x="201.5" y="1050" as="targetPoint" />
          </mxGeometry>
        </mxCell>
        <mxCell id="_J1StjP0gH5-haKna9LU-10" value="" style="html=1;verticalAlign=bottom;endArrow=open;dashed=1;endSize=8;labelBackgroundColor=none;fontFamily=Verdana;fontSize=12;edgeStyle=elbowEdgeStyle;elbow=vertical;strokeWidth=1;" edge="1" parent="_J1StjP0gH5-haKna9LU-3">
          <mxGeometry x="0.0019" relative="1" as="geometry">
            <mxPoint x="-392" y="1640" as="targetPoint" />
            <Array as="points">
              <mxPoint x="-6.25" y="1640" />
            </Array>
            <mxPoint x="50" y="1640" as="sourcePoint" />
            <mxPoint as="offset" />
          </mxGeometry>
        </mxCell>
        <mxCell id="_J1StjP0gH5-haKna9LU-11" value="&lt;font style=&quot;font-size: 14px;&quot;&gt;FIDO Server&lt;/font&gt;" style="shape=umlLifeline;perimeter=lifelinePerimeter;whiteSpace=wrap;html=1;container=1;collapsible=0;recursiveResize=0;outlineConnect=0;rounded=1;shadow=0;comic=0;labelBackgroundColor=none;strokeWidth=1;fontFamily=Verdana;fontSize=12;align=center;fillColor=#fff2cc;strokeColor=#990000;" vertex="1" parent="1">
          <mxGeometry x="811" y="80" width="100" height="1680" as="geometry" />
        </mxCell>
        <mxCell id="_J1StjP0gH5-haKna9LU-12" value="" style="endArrow=classic;html=1;rounded=0;strokeWidth=1;exitX=0.974;exitY=0.123;exitDx=0;exitDy=0;exitPerimeter=0;" edge="1" parent="_J1StjP0gH5-haKna9LU-11" source="_J1StjP0gH5-haKna9LU-24">
          <mxGeometry width="50" height="50" relative="1" as="geometry">
            <mxPoint x="-101" y="220" as="sourcePoint" />
            <mxPoint x="39" y="220" as="targetPoint" />
            <Array as="points" />
          </mxGeometry>
        </mxCell>
        <mxCell id="_J1StjP0gH5-haKna9LU-13" value="" style="html=1;points=[];perimeter=orthogonalPerimeter;rounded=0;shadow=0;comic=0;labelBackgroundColor=none;strokeWidth=1;fontFamily=Verdana;fontSize=12;align=center;" vertex="1" parent="_J1StjP0gH5-haKna9LU-11">
          <mxGeometry x="40" y="220" width="10" height="290" as="geometry" />
        </mxCell>
        <mxCell id="_J1StjP0gH5-haKna9LU-14" value="" style="html=1;points=[];perimeter=orthogonalPerimeter;rounded=0;shadow=0;comic=0;labelBackgroundColor=none;strokeWidth=1;fontFamily=Verdana;fontSize=12;align=center;" vertex="1" parent="_J1StjP0gH5-haKna9LU-11">
          <mxGeometry x="45" y="320" width="10" height="130" as="geometry" />
        </mxCell>
        <mxCell id="_J1StjP0gH5-haKna9LU-15" value="&lt;span style=&quot;color: rgb(0, 0, 0); font-family: Helvetica; font-size: 18px; font-style: normal; font-variant-ligatures: normal; font-variant-caps: normal; font-weight: 400; letter-spacing: normal; orphans: 2; text-align: center; text-indent: 0px; text-transform: none; widows: 2; word-spacing: 0px; -webkit-text-stroke-width: 0px; white-space: normal; background-color: rgb(251, 251, 251); text-decoration-thickness: initial; text-decoration-style: initial; text-decoration-color: initial; display: inline !important; float: none;&quot;&gt;發送註冊結果&lt;/span&gt;" style="text;whiteSpace=wrap;html=1;" vertex="1" parent="_J1StjP0gH5-haKna9LU-11">
          <mxGeometry x="-78" y="1055" width="110" height="30" as="geometry" />
        </mxCell>
        <mxCell id="_J1StjP0gH5-haKna9LU-16" value="" style="endArrow=classic;html=1;rounded=0;strokeWidth=1;" edge="1" parent="_J1StjP0gH5-haKna9LU-11" target="_J1StjP0gH5-haKna9LU-11">
          <mxGeometry width="50" height="50" relative="1" as="geometry">
            <mxPoint x="-91.5" y="1090" as="sourcePoint" />
            <mxPoint x="39" y="1090" as="targetPoint" />
          </mxGeometry>
        </mxCell>
        <mxCell id="_J1StjP0gH5-haKna9LU-17" value="" style="html=1;points=[];perimeter=orthogonalPerimeter;rounded=0;shadow=0;comic=0;labelBackgroundColor=none;strokeWidth=1;fontFamily=Verdana;fontSize=12;align=center;" vertex="1" parent="_J1StjP0gH5-haKna9LU-11">
          <mxGeometry x="50" y="1089" width="10" height="441" as="geometry" />
        </mxCell>
        <mxCell id="_J1StjP0gH5-haKna9LU-18" value="" style="html=1;points=[];perimeter=orthogonalPerimeter;rounded=0;shadow=0;comic=0;labelBackgroundColor=none;strokeWidth=1;fontFamily=Verdana;fontSize=12;align=center;" vertex="1" parent="_J1StjP0gH5-haKna9LU-11">
          <mxGeometry x="55" y="1100" width="10" height="219" as="geometry" />
        </mxCell>
        <mxCell id="_J1StjP0gH5-haKna9LU-19" value="" style="html=1;verticalAlign=bottom;endArrow=open;dashed=1;endSize=8;labelBackgroundColor=none;fontFamily=Verdana;fontSize=12;edgeStyle=elbowEdgeStyle;elbow=vertical;strokeWidth=1;entryX=0.5;entryY=0.909;entryDx=0;entryDy=0;entryPerimeter=0;" edge="1" parent="_J1StjP0gH5-haKna9LU-11" source="_J1StjP0gH5-haKna9LU-11">
          <mxGeometry x="0.0019" relative="1" as="geometry">
            <mxPoint x="-90" y="1530.2399999999998" as="targetPoint" />
            <Array as="points">
              <mxPoint x="-30" y="1530" />
            </Array>
            <mxPoint x="39" y="1530" as="sourcePoint" />
            <mxPoint as="offset" />
          </mxGeometry>
        </mxCell>
        <mxCell id="_J1StjP0gH5-haKna9LU-20" value="&lt;font style=&quot;font-size: 14px;&quot;&gt;Web Server&lt;/font&gt;" style="shape=umlLifeline;perimeter=lifelinePerimeter;whiteSpace=wrap;html=1;container=1;collapsible=0;recursiveResize=0;outlineConnect=0;rounded=1;shadow=0;comic=0;labelBackgroundColor=none;strokeWidth=1;fontFamily=Verdana;fontSize=12;align=center;fillColor=#fff2cc;strokeColor=#990000;" vertex="1" parent="1">
          <mxGeometry x="662" y="80" width="100" height="1680" as="geometry" />
        </mxCell>
        <mxCell id="_J1StjP0gH5-haKna9LU-21" value="&lt;font style=&quot;font-size: 16px;&quot;&gt;啟動二次身份驗證&lt;br&gt;的註冊流程&lt;/font&gt;" style="text;html=1;align=center;verticalAlign=middle;whiteSpace=wrap;rounded=0;" vertex="1" parent="_J1StjP0gH5-haKna9LU-20">
          <mxGeometry x="-100" y="130" width="150" height="30" as="geometry" />
        </mxCell>
        <mxCell id="_J1StjP0gH5-haKna9LU-22" value="" style="html=1;points=[];perimeter=orthogonalPerimeter;rounded=0;shadow=0;comic=0;labelBackgroundColor=none;strokeWidth=1;fontFamily=Verdana;fontSize=12;align=center;" vertex="1" parent="_J1StjP0gH5-haKna9LU-20">
          <mxGeometry x="50" y="1050" width="10" height="530" as="geometry" />
        </mxCell>
        <mxCell id="_J1StjP0gH5-haKna9LU-24" value="" style="html=1;points=[];perimeter=orthogonalPerimeter;rounded=0;shadow=0;comic=0;labelBackgroundColor=none;strokeWidth=1;fontFamily=Verdana;fontSize=12;align=center;" vertex="1" parent="_J1StjP0gH5-haKna9LU-20">
          <mxGeometry x="50" y="170" width="10" height="400" as="geometry" />
        </mxCell>
        <mxCell id="_J1StjP0gH5-haKna9LU-25" value="&lt;font style=&quot;font-size: 30px;&quot;&gt;Actor&lt;/font&gt;" style="shape=umlActor;verticalLabelPosition=bottom;verticalAlign=top;html=1;outlineConnect=0;fontSize=30;" vertex="1" parent="1">
          <mxGeometry x="100" y="80" width="30" height="60" as="geometry" />
        </mxCell>
        <mxCell id="_J1StjP0gH5-haKna9LU-26" value="&lt;font style=&quot;font-size: 30px;&quot;&gt;Client&lt;/font&gt;" style="shape=note;whiteSpace=wrap;html=1;size=14;verticalAlign=top;align=center;spacingTop=-6;rounded=0;shadow=0;comic=0;labelBackgroundColor=none;strokeWidth=1;fontFamily=Verdana;fontSize=12;fillColor=#d5e8d4;strokeColor=#82b366;" vertex="1" parent="1">
          <mxGeometry x="214" y="30" width="396" height="40" as="geometry" />
        </mxCell>
        <mxCell id="_J1StjP0gH5-haKna9LU-27" value="&lt;font style=&quot;font-size: 30px;&quot;&gt;Server (rp_general)&lt;/font&gt;" style="shape=note;whiteSpace=wrap;html=1;size=14;verticalAlign=top;align=center;spacingTop=-6;rounded=0;shadow=0;comic=0;labelBackgroundColor=none;strokeWidth=1;fontFamily=Verdana;fontSize=12;fillColor=#dae8fc;strokeColor=#6c8ebf;" vertex="1" parent="1">
          <mxGeometry x="661" y="30" width="400" height="40" as="geometry" />
        </mxCell>
        <mxCell id="_J1StjP0gH5-haKna9LU-28" value="&lt;font style=&quot;font-size: 14px;&quot;&gt;Database Server&lt;/font&gt;" style="shape=umlLifeline;perimeter=lifelinePerimeter;whiteSpace=wrap;html=1;container=1;collapsible=0;recursiveResize=0;outlineConnect=0;rounded=1;shadow=0;comic=0;labelBackgroundColor=none;strokeWidth=1;fontFamily=Verdana;fontSize=12;align=center;fillColor=#fff2cc;strokeColor=#990000;fixedWidth=0;" vertex="1" parent="1">
          <mxGeometry x="960" y="80" width="100" height="1680" as="geometry" />
        </mxCell>
        <mxCell id="_J1StjP0gH5-haKna9LU-29" value="" style="html=1;points=[];perimeter=orthogonalPerimeter;rounded=0;shadow=0;comic=0;labelBackgroundColor=none;strokeWidth=1;fontFamily=Verdana;fontSize=12;align=center;" vertex="1" parent="_J1StjP0gH5-haKna9LU-28">
          <mxGeometry x="50" y="1400" width="10" height="80" as="geometry" />
        </mxCell>
        <mxCell id="_J1StjP0gH5-haKna9LU-30" value="" style="endArrow=classic;html=1;rounded=0;strokeWidth=1;exitX=1.086;exitY=0.691;exitDx=0;exitDy=0;exitPerimeter=0;" edge="1" parent="_J1StjP0gH5-haKna9LU-28" target="_J1StjP0gH5-haKna9LU-29">
          <mxGeometry width="50" height="50" relative="1" as="geometry">
            <mxPoint x="-88.14000000000033" y="1400.2200000000003" as="sourcePoint" />
            <mxPoint x="47.5" y="1400" as="targetPoint" />
          </mxGeometry>
        </mxCell>
        <mxCell id="_J1StjP0gH5-haKna9LU-31" value="" style="endArrow=none;dashed=1;html=1;rounded=0;strokeColor=#990000;" edge="1" parent="1">
          <mxGeometry width="50" height="50" relative="1" as="geometry">
            <mxPoint x="120" y="1760" as="sourcePoint" />
            <mxPoint x="120" y="200" as="targetPoint" />
          </mxGeometry>
        </mxCell>
        <mxCell id="_J1StjP0gH5-haKna9LU-32" value="&lt;font style=&quot;font-size: 18px;&quot;&gt;輸入使用者名稱&lt;/font&gt;" style="text;html=1;align=center;verticalAlign=middle;whiteSpace=wrap;rounded=0;" vertex="1" parent="1">
          <mxGeometry x="280" y="170" width="130" height="30" as="geometry" />
        </mxCell>
        <mxCell id="_J1StjP0gH5-haKna9LU-33" value="&lt;font style=&quot;font-size: 18px;&quot;&gt;產生&lt;br&gt;註冊選項, &lt;br&gt;驗證器政策, &lt;br&gt;挑戰碼(challenge)&lt;/font&gt;" style="text;html=1;align=center;verticalAlign=middle;whiteSpace=wrap;rounded=0;" vertex="1" parent="1">
          <mxGeometry x="880" y="300" width="100" height="160" as="geometry" />
        </mxCell>
        <mxCell id="_J1StjP0gH5-haKna9LU-34" value="&lt;span style=&quot;font-size: 18px;&quot;&gt;回傳&lt;/span&gt;" style="text;html=1;align=center;verticalAlign=middle;whiteSpace=wrap;rounded=0;" vertex="1" parent="1">
          <mxGeometry x="590" y="620" width="100" height="20" as="geometry" />
        </mxCell>
        <mxCell id="_J1StjP0gH5-haKna9LU-35" value="&lt;font style=&quot;font-size: 18px;&quot;&gt;二次身份驗證(註冊)&lt;/font&gt;" style="text;html=1;align=center;verticalAlign=middle;whiteSpace=wrap;rounded=0;" vertex="1" parent="1">
          <mxGeometry x="729" y="260" width="113" height="30" as="geometry" />
        </mxCell>
        <mxCell id="_J1StjP0gH5-haKna9LU-36" value="" style="curved=1;endArrow=classic;html=1;rounded=0;strokeWidth=1;" edge="1" parent="1">
          <mxGeometry width="50" height="50" relative="1" as="geometry">
            <mxPoint x="870.0039393939394" y="450" as="sourcePoint" />
            <mxPoint x="870.0039393939394" y="510" as="targetPoint" />
            <Array as="points">
              <mxPoint x="940" y="450" />
              <mxPoint x="910" y="510" />
            </Array>
          </mxGeometry>
        </mxCell>
        <mxCell id="_J1StjP0gH5-haKna9LU-37" value="" style="curved=1;endArrow=classic;html=1;rounded=0;strokeWidth=1;" edge="1" parent="1">
          <mxGeometry width="50" height="50" relative="1" as="geometry">
            <mxPoint x="280.0039393939394" y="891" as="sourcePoint" />
            <mxPoint x="280.0039393939394" y="951" as="targetPoint" />
            <Array as="points">
              <mxPoint x="350" y="890" />
              <mxPoint x="320" y="950" />
            </Array>
          </mxGeometry>
        </mxCell>
        <mxCell id="_J1StjP0gH5-haKna9LU-38" value="" style="endArrow=classic;html=1;rounded=0;strokeWidth=1;" edge="1" parent="1" target="_J1StjP0gH5-haKna9LU-1">
          <mxGeometry width="50" height="50" relative="1" as="geometry">
            <mxPoint x="270.5048387096773" y="1040" as="sourcePoint" />
            <mxPoint x="393" y="1040" as="targetPoint" />
          </mxGeometry>
        </mxCell>
        <mxCell id="_J1StjP0gH5-haKna9LU-39" value="&lt;span style=&quot;font-size: 18px;&quot;&gt;回傳&lt;/span&gt;" style="text;html=1;align=center;verticalAlign=middle;whiteSpace=wrap;rounded=0;" vertex="1" parent="1">
          <mxGeometry x="435" y="670" width="100" height="20" as="geometry" />
        </mxCell>
        <mxCell id="_J1StjP0gH5-haKna9LU-40" value="&lt;span style=&quot;font-size: 18px;&quot;&gt;建立新的公私鑰對,&lt;br&gt;使用私鑰簽署挑戰碼,&lt;br&gt;儲存私鑰&lt;/span&gt;" style="text;html=1;align=center;verticalAlign=middle;whiteSpace=wrap;rounded=0;" vertex="1" parent="1">
          <mxGeometry x="293" y="770" width="100" height="120" as="geometry" />
        </mxCell>
        <mxCell id="_J1StjP0gH5-haKna9LU-41" value="&lt;span style=&quot;color: rgb(0, 0, 0); font-family: Helvetica; font-size: 18px; font-style: normal; font-variant-ligatures: normal; font-variant-caps: normal; font-weight: 400; letter-spacing: normal; orphans: 2; text-align: center; text-indent: 0px; text-transform: none; widows: 2; word-spacing: 0px; -webkit-text-stroke-width: 0px; white-space: normal; background-color: rgb(251, 251, 251); text-decoration-thickness: initial; text-decoration-style: initial; text-decoration-color: initial; display: inline !important; float: none;&quot;&gt;發送註冊結果&lt;/span&gt;" style="text;whiteSpace=wrap;html=1;" vertex="1" parent="1">
          <mxGeometry x="578" y="1090" width="110" height="30" as="geometry" />
        </mxCell>
        <mxCell id="_J1StjP0gH5-haKna9LU-42" value="&lt;font style=&quot;font-size: 18px;&quot;&gt;驗證&lt;br&gt;註冊選項, &lt;br&gt;驗證器政策, &lt;br&gt;挑戰碼(challenge)&lt;/font&gt;" style="text;html=1;align=center;verticalAlign=middle;whiteSpace=wrap;rounded=0;" vertex="1" parent="1">
          <mxGeometry x="880" y="1150" width="100" height="160" as="geometry" />
        </mxCell>
        <mxCell id="_J1StjP0gH5-haKna9LU-43" value="" style="curved=1;endArrow=classic;html=1;rounded=0;strokeWidth=1;" edge="1" parent="1">
          <mxGeometry width="50" height="50" relative="1" as="geometry">
            <mxPoint x="880.0039393939394" y="1320" as="sourcePoint" />
            <mxPoint x="880.0039393939394" y="1380" as="targetPoint" />
            <Array as="points">
              <mxPoint x="950" y="1320" />
              <mxPoint x="920" y="1380" />
            </Array>
          </mxGeometry>
        </mxCell>
        <mxCell id="_J1StjP0gH5-haKna9LU-44" value="&lt;span style=&quot;font-size: 18px;&quot;&gt;回傳註冊結果&lt;/span&gt;" style="text;html=1;align=center;verticalAlign=middle;whiteSpace=wrap;rounded=0;" vertex="1" parent="1">
          <mxGeometry x="580" y="1630" width="120" height="20" as="geometry" />
        </mxCell>
        <mxCell id="_J1StjP0gH5-haKna9LU-45" value="&lt;font style=&quot;font-size: 14px;&quot;&gt;Authenticator&lt;/font&gt;" style="shape=umlLifeline;perimeter=lifelinePerimeter;whiteSpace=wrap;html=1;container=1;collapsible=0;recursiveResize=0;outlineConnect=0;rounded=1;shadow=0;comic=0;labelBackgroundColor=none;strokeWidth=1;fontFamily=Verdana;fontSize=14;align=center;fillColor=#fff2cc;strokeColor=#990000;aspect=fixed;" vertex="1" parent="1">
          <mxGeometry x="214" y="80" width="95.45" height="1680" as="geometry" />
        </mxCell>
        <mxCell id="_J1StjP0gH5-haKna9LU-46" value="" style="html=1;points=[];perimeter=orthogonalPerimeter;rounded=0;shadow=0;comic=0;labelBackgroundColor=none;strokeWidth=1;fontFamily=Verdana;fontSize=12;align=center;" vertex="1" parent="_J1StjP0gH5-haKna9LU-45">
          <mxGeometry x="51" y="670" width="10" height="290" as="geometry" />
        </mxCell>
        <mxCell id="_J1StjP0gH5-haKna9LU-47" value="" style="html=1;points=[];perimeter=orthogonalPerimeter;rounded=0;shadow=0;comic=0;labelBackgroundColor=none;strokeWidth=1;fontFamily=Verdana;fontSize=12;align=center;" vertex="1" parent="_J1StjP0gH5-haKna9LU-45">
          <mxGeometry x="56" y="770" width="10" height="130" as="geometry" />
        </mxCell>
        <mxCell id="_J1StjP0gH5-haKna9LU-48" value="" style="html=1;verticalAlign=bottom;endArrow=open;dashed=1;endSize=8;labelBackgroundColor=none;fontFamily=Verdana;fontSize=12;edgeStyle=elbowEdgeStyle;elbow=vertical;strokeWidth=1;exitX=0.366;exitY=0.996;exitDx=0;exitDy=0;exitPerimeter=0;entryX=1.015;entryY=0.851;entryDx=0;entryDy=0;entryPerimeter=0;" edge="1" parent="1" source="_J1StjP0gH5-haKna9LU-13" target="_J1StjP0gH5-haKna9LU-24">
          <mxGeometry x="0.0019" relative="1" as="geometry">
            <mxPoint x="780" y="630" as="targetPoint" />
            <Array as="points">
              <mxPoint x="810" y="590" />
            </Array>
            <mxPoint x="842" y="589.9999999999999" as="sourcePoint" />
            <mxPoint as="offset" />
          </mxGeometry>
        </mxCell>
        <mxCell id="_J1StjP0gH5-haKna9LU-49" value="&lt;span style=&quot;font-size: 18px;&quot;&gt;回傳&lt;/span&gt;" style="text;html=1;align=center;verticalAlign=middle;whiteSpace=wrap;rounded=0;" vertex="1" parent="1">
          <mxGeometry x="733" y="565" width="100" height="20" as="geometry" />
        </mxCell>
        <mxCell id="_J1StjP0gH5-haKna9LU-50" value="" style="html=1;verticalAlign=bottom;endArrow=open;dashed=1;endSize=8;labelBackgroundColor=none;fontFamily=Verdana;fontSize=12;edgeStyle=elbowEdgeStyle;elbow=vertical;strokeWidth=1;" edge="1" parent="1" source="_J1StjP0gH5-haKna9LU-20">
          <mxGeometry x="0.0019" relative="1" as="geometry">
            <mxPoint x="570" y="650" as="targetPoint" />
            <Array as="points">
              <mxPoint x="632" y="650" />
            </Array>
            <mxPoint x="702" y="650" as="sourcePoint" />
            <mxPoint as="offset" />
          </mxGeometry>
        </mxCell>
        <mxCell id="_J1StjP0gH5-haKna9LU-51" value="" style="html=1;verticalAlign=bottom;endArrow=open;dashed=1;endSize=8;labelBackgroundColor=none;fontFamily=Verdana;fontSize=12;edgeStyle=elbowEdgeStyle;elbow=vertical;strokeWidth=1;" edge="1" parent="1" source="_J1StjP0gH5-haKna9LU-1">
          <mxGeometry x="0.0019" relative="1" as="geometry">
            <mxPoint x="280" y="750" as="targetPoint" />
            <Array as="points">
              <mxPoint x="365.38" y="750" />
            </Array>
            <mxPoint x="410" y="750" as="sourcePoint" />
            <mxPoint as="offset" />
          </mxGeometry>
        </mxCell>
        <mxCell id="_J1StjP0gH5-haKna9LU-52" value="&lt;span style=&quot;font-size: 18px;&quot;&gt;觸發驗證&lt;/span&gt;" style="text;html=1;align=center;verticalAlign=middle;whiteSpace=wrap;rounded=0;" vertex="1" parent="1">
          <mxGeometry x="293" y="720" width="100" height="20" as="geometry" />
        </mxCell>
        <mxCell id="_J1StjP0gH5-haKna9LU-53" value="&lt;span style=&quot;color: rgb(0, 0, 0); font-family: Helvetica; font-size: 18px; font-style: normal; font-variant-ligatures: normal; font-variant-caps: normal; font-weight: 400; letter-spacing: normal; orphans: 2; text-align: center; text-indent: 0px; text-transform: none; widows: 2; word-spacing: 0px; -webkit-text-stroke-width: 0px; white-space: normal; background-color: rgb(251, 251, 251); text-decoration-thickness: initial; text-decoration-style: initial; text-decoration-color: initial; display: inline !important; float: none;&quot;&gt;發送註冊結果&lt;/span&gt;" style="text;whiteSpace=wrap;html=1;" vertex="1" parent="1">
          <mxGeometry x="280" y="1000" width="110" height="30" as="geometry" />
        </mxCell>
        <mxCell id="_J1StjP0gH5-haKna9LU-54" value="" style="html=1;verticalAlign=bottom;endArrow=open;dashed=1;endSize=8;labelBackgroundColor=none;fontFamily=Verdana;fontSize=12;edgeStyle=elbowEdgeStyle;elbow=vertical;strokeWidth=1;exitX=0.367;exitY=0.998;exitDx=0;exitDy=0;exitPerimeter=0;entryX=1.183;entryY=0.888;entryDx=0;entryDy=0;entryPerimeter=0;" edge="1" parent="1" source="_J1StjP0gH5-haKna9LU-29" target="_J1StjP0gH5-haKna9LU-17">
          <mxGeometry x="0.0019" relative="1" as="geometry">
            <mxPoint x="900" y="1560" as="targetPoint" />
            <Array as="points">
              <mxPoint x="931" y="1560" />
            </Array>
            <mxPoint x="971" y="1560" as="sourcePoint" />
            <mxPoint as="offset" />
          </mxGeometry>
        </mxCell>
        <mxCell id="_J1StjP0gH5-haKna9LU-55" value="&lt;span style=&quot;font-size: 18px;&quot;&gt;回傳結果&lt;/span&gt;" style="text;html=1;align=center;verticalAlign=middle;whiteSpace=wrap;rounded=0;" vertex="1" parent="1">
          <mxGeometry x="877" y="1530" width="120" height="20" as="geometry" />
        </mxCell>
        <mxCell id="_J1StjP0gH5-haKna9LU-56" value="&lt;div style=&quot;text-align: center;&quot;&gt;&lt;span style=&quot;background-color: initial; font-size: 18px;&quot;&gt;儲存註冊資料&lt;br&gt;與公鑰&lt;/span&gt;&lt;/div&gt;" style="text;whiteSpace=wrap;html=1;" vertex="1" parent="1">
          <mxGeometry x="887" y="1420" width="110" height="50" as="geometry" />
        </mxCell>
        <mxCell id="_J1StjP0gH5-haKna9LU-57" value="&lt;span style=&quot;font-size: 18px;&quot;&gt;完成二次身份驗證的註冊流程&lt;/span&gt;" style="text;html=1;align=center;verticalAlign=middle;whiteSpace=wrap;rounded=0;" vertex="1" parent="1">
          <mxGeometry x="119" y="1690" width="274" height="20" as="geometry" />
        </mxCell>
        <mxCell id="_J1StjP0gH5-haKna9LU-58" value="&lt;span style=&quot;font-size: 18px;&quot;&gt;回傳註冊結果&lt;/span&gt;" style="text;html=1;align=center;verticalAlign=middle;whiteSpace=wrap;rounded=0;" vertex="1" parent="1">
          <mxGeometry x="729" y="1580" width="120" height="20" as="geometry" />
        </mxCell>
        <mxCell id="_J1StjP0gH5-haKna9LU-23" value="" style="endArrow=classic;html=1;rounded=0;strokeWidth=1;exitX=1.075;exitY=0.106;exitDx=0;exitDy=0;exitPerimeter=0;" edge="1" parent="1">
          <mxGeometry width="50" height="50" relative="1" as="geometry">
            <mxPoint x="569.63" y="250" as="sourcePoint" />
            <mxPoint x="710.38" y="250" as="targetPoint" />
          </mxGeometry>
        </mxCell>
      </root>
    </mxGraphModel>
  </diagram>
  <diagram id="kktDaxKpLHAnEy7-YrYg" name="嚴格顧客驗證">
    <mxGraphModel dx="2502" dy="1512" grid="1" gridSize="10" guides="1" tooltips="1" connect="1" arrows="1" fold="1" page="1" pageScale="1" pageWidth="827" pageHeight="1169" math="0" shadow="0">
      <root>
        <mxCell id="0" />
        <mxCell id="1" parent="0" />
        <mxCell id="fbryVeWGrD8wQyi_UNOS-1" value="&lt;font style=&quot;font-size: 14px;&quot;&gt;FIDO Client&lt;/font&gt;" style="shape=umlLifeline;perimeter=lifelinePerimeter;whiteSpace=wrap;html=1;container=1;collapsible=0;recursiveResize=0;outlineConnect=0;rounded=1;shadow=0;comic=0;labelBackgroundColor=none;strokeWidth=1;fontFamily=Verdana;fontSize=14;align=center;fillColor=#fff2cc;strokeColor=#990000;" vertex="1" parent="1">
          <mxGeometry x="363" y="80" width="100" height="1680" as="geometry" />
        </mxCell>
        <mxCell id="fbryVeWGrD8wQyi_UNOS-2" value="" style="endArrow=classic;html=1;rounded=0;strokeWidth=1;" edge="1" parent="fbryVeWGrD8wQyi_UNOS-1" target="fbryVeWGrD8wQyi_UNOS-3">
          <mxGeometry width="50" height="50" relative="1" as="geometry">
            <mxPoint x="-243" y="120" as="sourcePoint" />
            <mxPoint x="117" y="120" as="targetPoint" />
          </mxGeometry>
        </mxCell>
        <mxCell id="fbryVeWGrD8wQyi_UNOS-3" value="&lt;font style=&quot;font-size: 14px;&quot;&gt;Browser&lt;/font&gt;" style="shape=umlLifeline;perimeter=lifelinePerimeter;whiteSpace=wrap;html=1;container=1;collapsible=0;recursiveResize=0;outlineConnect=0;rounded=1;shadow=0;comic=0;labelBackgroundColor=none;strokeWidth=1;fontFamily=Verdana;fontSize=14;align=center;fillColor=#fff2cc;strokeColor=#990000;" vertex="1" parent="1">
          <mxGeometry x="512" y="80" width="100" height="1680" as="geometry" />
        </mxCell>
        <mxCell id="fbryVeWGrD8wQyi_UNOS-4" value="" style="html=1;points=[];perimeter=orthogonalPerimeter;rounded=0;shadow=0;comic=0;labelBackgroundColor=none;strokeWidth=1;fontFamily=Verdana;fontSize=12;align=center;" vertex="1" parent="fbryVeWGrD8wQyi_UNOS-3">
          <mxGeometry x="48" y="120" width="10" height="500" as="geometry" />
        </mxCell>
        <mxCell id="fbryVeWGrD8wQyi_UNOS-5" value="&lt;span style=&quot;color: rgb(0, 0, 0); font-family: Helvetica; font-size: 18px; font-style: normal; font-variant-ligatures: normal; font-variant-caps: normal; font-weight: 400; letter-spacing: normal; orphans: 2; text-align: center; text-indent: 0px; text-transform: none; widows: 2; word-spacing: 0px; -webkit-text-stroke-width: 0px; white-space: normal; background-color: rgb(251, 251, 251); text-decoration-thickness: initial; text-decoration-style: initial; text-decoration-color: initial; display: inline !important; float: none;&quot;&gt;發送認證結果&lt;/span&gt;" style="text;whiteSpace=wrap;html=1;" vertex="1" parent="fbryVeWGrD8wQyi_UNOS-3">
          <mxGeometry x="-82" y="970" width="110" height="30" as="geometry" />
        </mxCell>
        <mxCell id="fbryVeWGrD8wQyi_UNOS-6" value="" style="html=1;verticalAlign=bottom;endArrow=open;dashed=1;endSize=8;labelBackgroundColor=none;fontFamily=Verdana;fontSize=12;edgeStyle=elbowEdgeStyle;elbow=vertical;strokeWidth=1;entryX=0.5;entryY=0.909;entryDx=0;entryDy=0;entryPerimeter=0;" edge="1" parent="fbryVeWGrD8wQyi_UNOS-3" source="fbryVeWGrD8wQyi_UNOS-20">
          <mxGeometry x="0.0019" relative="1" as="geometry">
            <mxPoint x="50" y="1580.2399999999998" as="targetPoint" />
            <Array as="points">
              <mxPoint x="110" y="1580" />
            </Array>
            <mxPoint x="170" y="1580" as="sourcePoint" />
            <mxPoint as="offset" />
          </mxGeometry>
        </mxCell>
        <mxCell id="fbryVeWGrD8wQyi_UNOS-7" value="" style="html=1;verticalAlign=bottom;endArrow=open;dashed=1;endSize=8;labelBackgroundColor=none;fontFamily=Verdana;fontSize=12;edgeStyle=elbowEdgeStyle;elbow=vertical;strokeWidth=1;" edge="1" parent="fbryVeWGrD8wQyi_UNOS-3" target="fbryVeWGrD8wQyi_UNOS-1">
          <mxGeometry x="0.0019" relative="1" as="geometry">
            <mxPoint x="-70" y="620" as="targetPoint" />
            <Array as="points">
              <mxPoint x="-20" y="620" />
            </Array>
            <mxPoint x="50" y="620" as="sourcePoint" />
            <mxPoint as="offset" />
          </mxGeometry>
        </mxCell>
        <mxCell id="fbryVeWGrD8wQyi_UNOS-8" value="" style="endArrow=classic;html=1;rounded=0;strokeWidth=1;" edge="1" parent="fbryVeWGrD8wQyi_UNOS-3" target="fbryVeWGrD8wQyi_UNOS-3">
          <mxGeometry width="50" height="50" relative="1" as="geometry">
            <mxPoint x="-97.9951612903227" y="1010" as="sourcePoint" />
            <mxPoint x="24.5" y="1010" as="targetPoint" />
          </mxGeometry>
        </mxCell>
        <mxCell id="fbryVeWGrD8wQyi_UNOS-9" value="" style="endArrow=classic;html=1;rounded=0;strokeWidth=1;" edge="1" parent="fbryVeWGrD8wQyi_UNOS-3">
          <mxGeometry width="50" height="50" relative="1" as="geometry">
            <mxPoint x="50" y="1050" as="sourcePoint" />
            <mxPoint x="201.5" y="1050" as="targetPoint" />
          </mxGeometry>
        </mxCell>
        <mxCell id="fbryVeWGrD8wQyi_UNOS-10" value="" style="html=1;verticalAlign=bottom;endArrow=open;dashed=1;endSize=8;labelBackgroundColor=none;fontFamily=Verdana;fontSize=12;edgeStyle=elbowEdgeStyle;elbow=vertical;strokeWidth=1;" edge="1" parent="fbryVeWGrD8wQyi_UNOS-3">
          <mxGeometry x="0.0019" relative="1" as="geometry">
            <mxPoint x="-392" y="1640" as="targetPoint" />
            <Array as="points">
              <mxPoint x="-6.25" y="1640" />
            </Array>
            <mxPoint x="50" y="1640" as="sourcePoint" />
            <mxPoint as="offset" />
          </mxGeometry>
        </mxCell>
        <mxCell id="fbryVeWGrD8wQyi_UNOS-23" value="" style="endArrow=classic;html=1;rounded=0;strokeWidth=1;" edge="1" parent="fbryVeWGrD8wQyi_UNOS-3" target="fbryVeWGrD8wQyi_UNOS-20">
          <mxGeometry width="50" height="50" relative="1" as="geometry">
            <mxPoint x="58.0048387096773" y="170" as="sourcePoint" />
            <mxPoint x="186" y="170" as="targetPoint" />
          </mxGeometry>
        </mxCell>
        <mxCell id="fbryVeWGrD8wQyi_UNOS-11" value="&lt;font style=&quot;font-size: 14px;&quot;&gt;FIDO Server&lt;/font&gt;" style="shape=umlLifeline;perimeter=lifelinePerimeter;whiteSpace=wrap;html=1;container=1;collapsible=0;recursiveResize=0;outlineConnect=0;rounded=1;shadow=0;comic=0;labelBackgroundColor=none;strokeWidth=1;fontFamily=Verdana;fontSize=12;align=center;fillColor=#fff2cc;strokeColor=#990000;" vertex="1" parent="1">
          <mxGeometry x="811" y="80" width="100" height="1680" as="geometry" />
        </mxCell>
        <mxCell id="fbryVeWGrD8wQyi_UNOS-12" value="" style="endArrow=classic;html=1;rounded=0;strokeWidth=1;exitX=0.974;exitY=0.123;exitDx=0;exitDy=0;exitPerimeter=0;" edge="1" parent="fbryVeWGrD8wQyi_UNOS-11" source="fbryVeWGrD8wQyi_UNOS-24">
          <mxGeometry width="50" height="50" relative="1" as="geometry">
            <mxPoint x="-101" y="220" as="sourcePoint" />
            <mxPoint x="39" y="220" as="targetPoint" />
            <Array as="points" />
          </mxGeometry>
        </mxCell>
        <mxCell id="fbryVeWGrD8wQyi_UNOS-13" value="" style="html=1;points=[];perimeter=orthogonalPerimeter;rounded=0;shadow=0;comic=0;labelBackgroundColor=none;strokeWidth=1;fontFamily=Verdana;fontSize=12;align=center;" vertex="1" parent="fbryVeWGrD8wQyi_UNOS-11">
          <mxGeometry x="40" y="220" width="10" height="290" as="geometry" />
        </mxCell>
        <mxCell id="fbryVeWGrD8wQyi_UNOS-14" value="" style="html=1;points=[];perimeter=orthogonalPerimeter;rounded=0;shadow=0;comic=0;labelBackgroundColor=none;strokeWidth=1;fontFamily=Verdana;fontSize=12;align=center;" vertex="1" parent="fbryVeWGrD8wQyi_UNOS-11">
          <mxGeometry x="45" y="320" width="10" height="130" as="geometry" />
        </mxCell>
        <mxCell id="fbryVeWGrD8wQyi_UNOS-15" value="&lt;span style=&quot;color: rgb(0, 0, 0); font-family: Helvetica; font-size: 18px; font-style: normal; font-variant-ligatures: normal; font-variant-caps: normal; font-weight: 400; letter-spacing: normal; orphans: 2; text-align: center; text-indent: 0px; text-transform: none; widows: 2; word-spacing: 0px; -webkit-text-stroke-width: 0px; white-space: normal; background-color: rgb(251, 251, 251); text-decoration-thickness: initial; text-decoration-style: initial; text-decoration-color: initial; display: inline !important; float: none;&quot;&gt;發送認證結果&lt;/span&gt;" style="text;whiteSpace=wrap;html=1;" vertex="1" parent="fbryVeWGrD8wQyi_UNOS-11">
          <mxGeometry x="-78" y="1055" width="110" height="30" as="geometry" />
        </mxCell>
        <mxCell id="fbryVeWGrD8wQyi_UNOS-16" value="" style="endArrow=classic;html=1;rounded=0;strokeWidth=1;" edge="1" parent="fbryVeWGrD8wQyi_UNOS-11" target="fbryVeWGrD8wQyi_UNOS-11">
          <mxGeometry width="50" height="50" relative="1" as="geometry">
            <mxPoint x="-91.5" y="1090" as="sourcePoint" />
            <mxPoint x="39" y="1090" as="targetPoint" />
          </mxGeometry>
        </mxCell>
        <mxCell id="fbryVeWGrD8wQyi_UNOS-17" value="" style="html=1;points=[];perimeter=orthogonalPerimeter;rounded=0;shadow=0;comic=0;labelBackgroundColor=none;strokeWidth=1;fontFamily=Verdana;fontSize=12;align=center;" vertex="1" parent="fbryVeWGrD8wQyi_UNOS-11">
          <mxGeometry x="50" y="1089" width="10" height="441" as="geometry" />
        </mxCell>
        <mxCell id="fbryVeWGrD8wQyi_UNOS-18" value="" style="html=1;points=[];perimeter=orthogonalPerimeter;rounded=0;shadow=0;comic=0;labelBackgroundColor=none;strokeWidth=1;fontFamily=Verdana;fontSize=12;align=center;" vertex="1" parent="fbryVeWGrD8wQyi_UNOS-11">
          <mxGeometry x="55" y="1320" width="10" height="190" as="geometry" />
        </mxCell>
        <mxCell id="fbryVeWGrD8wQyi_UNOS-19" value="" style="html=1;verticalAlign=bottom;endArrow=open;dashed=1;endSize=8;labelBackgroundColor=none;fontFamily=Verdana;fontSize=12;edgeStyle=elbowEdgeStyle;elbow=vertical;strokeWidth=1;entryX=0.5;entryY=0.909;entryDx=0;entryDy=0;entryPerimeter=0;" edge="1" parent="fbryVeWGrD8wQyi_UNOS-11" source="fbryVeWGrD8wQyi_UNOS-11">
          <mxGeometry x="0.0019" relative="1" as="geometry">
            <mxPoint x="-90" y="1530.2399999999998" as="targetPoint" />
            <Array as="points">
              <mxPoint x="-30" y="1530" />
            </Array>
            <mxPoint x="39" y="1530" as="sourcePoint" />
            <mxPoint as="offset" />
          </mxGeometry>
        </mxCell>
        <mxCell id="fbryVeWGrD8wQyi_UNOS-20" value="&lt;font style=&quot;font-size: 14px;&quot;&gt;Web Server&lt;/font&gt;" style="shape=umlLifeline;perimeter=lifelinePerimeter;whiteSpace=wrap;html=1;container=1;collapsible=0;recursiveResize=0;outlineConnect=0;rounded=1;shadow=0;comic=0;labelBackgroundColor=none;strokeWidth=1;fontFamily=Verdana;fontSize=12;align=center;fillColor=#fff2cc;strokeColor=#990000;" vertex="1" parent="1">
          <mxGeometry x="662" y="80" width="100" height="1680" as="geometry" />
        </mxCell>
        <mxCell id="fbryVeWGrD8wQyi_UNOS-21" value="&lt;font style=&quot;font-size: 16px;&quot;&gt;啟動嚴格顧客驗證流程&lt;/font&gt;" style="text;html=1;align=center;verticalAlign=middle;whiteSpace=wrap;rounded=0;" vertex="1" parent="fbryVeWGrD8wQyi_UNOS-20">
          <mxGeometry x="-87" y="131" width="130" height="30" as="geometry" />
        </mxCell>
        <mxCell id="fbryVeWGrD8wQyi_UNOS-22" value="" style="html=1;points=[];perimeter=orthogonalPerimeter;rounded=0;shadow=0;comic=0;labelBackgroundColor=none;strokeWidth=1;fontFamily=Verdana;fontSize=12;align=center;" vertex="1" parent="fbryVeWGrD8wQyi_UNOS-20">
          <mxGeometry x="50" y="1050" width="10" height="530" as="geometry" />
        </mxCell>
        <mxCell id="fbryVeWGrD8wQyi_UNOS-24" value="" style="html=1;points=[];perimeter=orthogonalPerimeter;rounded=0;shadow=0;comic=0;labelBackgroundColor=none;strokeWidth=1;fontFamily=Verdana;fontSize=12;align=center;" vertex="1" parent="fbryVeWGrD8wQyi_UNOS-20">
          <mxGeometry x="50" y="170" width="10" height="400" as="geometry" />
        </mxCell>
        <mxCell id="fbryVeWGrD8wQyi_UNOS-25" value="&lt;font style=&quot;font-size: 30px;&quot;&gt;Actor&lt;/font&gt;" style="shape=umlActor;verticalLabelPosition=bottom;verticalAlign=top;html=1;outlineConnect=0;fontSize=30;" vertex="1" parent="1">
          <mxGeometry x="100" y="80" width="30" height="60" as="geometry" />
        </mxCell>
        <mxCell id="fbryVeWGrD8wQyi_UNOS-26" value="&lt;font style=&quot;font-size: 30px;&quot;&gt;Client&lt;/font&gt;" style="shape=note;whiteSpace=wrap;html=1;size=14;verticalAlign=top;align=center;spacingTop=-6;rounded=0;shadow=0;comic=0;labelBackgroundColor=none;strokeWidth=1;fontFamily=Verdana;fontSize=12;fillColor=#d5e8d4;strokeColor=#82b366;" vertex="1" parent="1">
          <mxGeometry x="214" y="30" width="396" height="40" as="geometry" />
        </mxCell>
        <mxCell id="fbryVeWGrD8wQyi_UNOS-27" value="&lt;span style=&quot;font-size: 30px;&quot;&gt;Server (rp_general)&lt;/span&gt;" style="shape=note;whiteSpace=wrap;html=1;size=14;verticalAlign=top;align=center;spacingTop=-6;rounded=0;shadow=0;comic=0;labelBackgroundColor=none;strokeWidth=1;fontFamily=Verdana;fontSize=12;fillColor=#dae8fc;strokeColor=#6c8ebf;" vertex="1" parent="1">
          <mxGeometry x="661" y="30" width="400" height="40" as="geometry" />
        </mxCell>
        <mxCell id="fbryVeWGrD8wQyi_UNOS-28" value="&lt;font style=&quot;font-size: 14px;&quot;&gt;Database Server&lt;/font&gt;" style="shape=umlLifeline;perimeter=lifelinePerimeter;whiteSpace=wrap;html=1;container=1;collapsible=0;recursiveResize=0;outlineConnect=0;rounded=1;shadow=0;comic=0;labelBackgroundColor=none;strokeWidth=1;fontFamily=Verdana;fontSize=12;align=center;fillColor=#fff2cc;strokeColor=#990000;fixedWidth=0;" vertex="1" parent="1">
          <mxGeometry x="960" y="80" width="100" height="1680" as="geometry" />
        </mxCell>
        <mxCell id="fbryVeWGrD8wQyi_UNOS-29" value="" style="html=1;points=[];perimeter=orthogonalPerimeter;rounded=0;shadow=0;comic=0;labelBackgroundColor=none;strokeWidth=1;fontFamily=Verdana;fontSize=12;align=center;" vertex="1" parent="fbryVeWGrD8wQyi_UNOS-28">
          <mxGeometry x="50" y="1170" width="10" height="80" as="geometry" />
        </mxCell>
        <mxCell id="fbryVeWGrD8wQyi_UNOS-30" value="" style="html=1;verticalAlign=bottom;endArrow=open;dashed=1;endSize=8;labelBackgroundColor=none;fontFamily=Verdana;fontSize=12;edgeStyle=elbowEdgeStyle;elbow=vertical;strokeWidth=1;exitX=0.367;exitY=0.998;exitDx=0;exitDy=0;exitPerimeter=0;entryX=1.183;entryY=0.888;entryDx=0;entryDy=0;entryPerimeter=0;" edge="1" parent="fbryVeWGrD8wQyi_UNOS-28">
          <mxGeometry x="0.0019" relative="1" as="geometry">
            <mxPoint x="-90.84000000000007" y="1250.7680000000003" as="targetPoint" />
            <Array as="points">
              <mxPoint x="-32.67" y="1250.16" />
            </Array>
            <mxPoint x="50.00000000000007" y="1250.0000000000002" as="sourcePoint" />
            <mxPoint as="offset" />
          </mxGeometry>
        </mxCell>
        <mxCell id="fbryVeWGrD8wQyi_UNOS-31" value="" style="endArrow=none;dashed=1;html=1;rounded=0;strokeColor=#990000;" edge="1" parent="1">
          <mxGeometry width="50" height="50" relative="1" as="geometry">
            <mxPoint x="120" y="1760" as="sourcePoint" />
            <mxPoint x="120" y="200" as="targetPoint" />
          </mxGeometry>
        </mxCell>
        <mxCell id="fbryVeWGrD8wQyi_UNOS-32" value="&lt;font style=&quot;font-size: 18px;&quot;&gt;確認使用者名稱與交易細節&lt;/font&gt;" style="text;html=1;align=center;verticalAlign=middle;whiteSpace=wrap;rounded=0;" vertex="1" parent="1">
          <mxGeometry x="418" y="160" width="130" height="30" as="geometry" />
        </mxCell>
        <mxCell id="fbryVeWGrD8wQyi_UNOS-33" value="&lt;font style=&quot;font-size: 18px;&quot;&gt;產生&lt;br&gt;認證選項, &lt;br&gt;驗證器政策, &lt;br&gt;挑戰碼(challenge)&lt;/font&gt;" style="text;html=1;align=center;verticalAlign=middle;whiteSpace=wrap;rounded=0;" vertex="1" parent="1">
          <mxGeometry x="880" y="300" width="100" height="160" as="geometry" />
        </mxCell>
        <mxCell id="fbryVeWGrD8wQyi_UNOS-34" value="&lt;span style=&quot;font-size: 18px;&quot;&gt;回傳&lt;/span&gt;" style="text;html=1;align=center;verticalAlign=middle;whiteSpace=wrap;rounded=0;" vertex="1" parent="1">
          <mxGeometry x="588" y="620" width="100" height="20" as="geometry" />
        </mxCell>
        <mxCell id="fbryVeWGrD8wQyi_UNOS-35" value="&lt;font style=&quot;font-size: 18px;&quot;&gt;嚴格顧客驗證(認證)&lt;/font&gt;" style="text;html=1;align=center;verticalAlign=middle;whiteSpace=wrap;rounded=0;" vertex="1" parent="1">
          <mxGeometry x="732" y="260" width="113" height="30" as="geometry" />
        </mxCell>
        <mxCell id="fbryVeWGrD8wQyi_UNOS-36" value="" style="curved=1;endArrow=classic;html=1;rounded=0;strokeWidth=1;" edge="1" parent="1">
          <mxGeometry width="50" height="50" relative="1" as="geometry">
            <mxPoint x="870.0039393939394" y="450" as="sourcePoint" />
            <mxPoint x="870.0039393939394" y="510" as="targetPoint" />
            <Array as="points">
              <mxPoint x="940" y="450" />
              <mxPoint x="910" y="510" />
            </Array>
          </mxGeometry>
        </mxCell>
        <mxCell id="fbryVeWGrD8wQyi_UNOS-37" value="" style="curved=1;endArrow=classic;html=1;rounded=0;strokeWidth=1;" edge="1" parent="1">
          <mxGeometry width="50" height="50" relative="1" as="geometry">
            <mxPoint x="280.0039393939394" y="891" as="sourcePoint" />
            <mxPoint x="280.0039393939394" y="951" as="targetPoint" />
            <Array as="points">
              <mxPoint x="350" y="890" />
              <mxPoint x="320" y="950" />
            </Array>
          </mxGeometry>
        </mxCell>
        <mxCell id="fbryVeWGrD8wQyi_UNOS-38" value="" style="endArrow=classic;html=1;rounded=0;strokeWidth=1;" edge="1" parent="1" target="fbryVeWGrD8wQyi_UNOS-1">
          <mxGeometry width="50" height="50" relative="1" as="geometry">
            <mxPoint x="270.5048387096773" y="1040" as="sourcePoint" />
            <mxPoint x="393" y="1040" as="targetPoint" />
          </mxGeometry>
        </mxCell>
        <mxCell id="fbryVeWGrD8wQyi_UNOS-39" value="&lt;span style=&quot;font-size: 18px;&quot;&gt;回傳&lt;/span&gt;" style="text;html=1;align=center;verticalAlign=middle;whiteSpace=wrap;rounded=0;" vertex="1" parent="1">
          <mxGeometry x="433" y="670" width="100" height="20" as="geometry" />
        </mxCell>
        <mxCell id="fbryVeWGrD8wQyi_UNOS-40" value="&lt;span style=&quot;font-size: 18px;&quot;&gt;使用私鑰&lt;br&gt;簽署挑戰碼&lt;br&gt;&lt;/span&gt;" style="text;html=1;align=center;verticalAlign=middle;whiteSpace=wrap;rounded=0;" vertex="1" parent="1">
          <mxGeometry x="293" y="830" width="100" height="60" as="geometry" />
        </mxCell>
        <mxCell id="fbryVeWGrD8wQyi_UNOS-41" value="&lt;span style=&quot;color: rgb(0, 0, 0); font-family: Helvetica; font-size: 18px; font-style: normal; font-variant-ligatures: normal; font-variant-caps: normal; font-weight: 400; letter-spacing: normal; orphans: 2; text-align: center; text-indent: 0px; text-transform: none; widows: 2; word-spacing: 0px; -webkit-text-stroke-width: 0px; white-space: normal; background-color: rgb(251, 251, 251); text-decoration-thickness: initial; text-decoration-style: initial; text-decoration-color: initial; display: inline !important; float: none;&quot;&gt;發送認證結果&lt;/span&gt;" style="text;whiteSpace=wrap;html=1;" vertex="1" parent="1">
          <mxGeometry x="576" y="1090" width="110" height="30" as="geometry" />
        </mxCell>
        <mxCell id="fbryVeWGrD8wQyi_UNOS-42" value="&lt;font style=&quot;font-size: 18px;&quot;&gt;驗證&lt;br&gt;認證選項, &lt;br&gt;驗證器政策, &lt;br&gt;挑戰碼(challenge)&lt;/font&gt;" style="text;html=1;align=center;verticalAlign=middle;whiteSpace=wrap;rounded=0;" vertex="1" parent="1">
          <mxGeometry x="885" y="1390" width="100" height="120" as="geometry" />
        </mxCell>
        <mxCell id="fbryVeWGrD8wQyi_UNOS-43" value="" style="curved=1;endArrow=classic;html=1;rounded=0;strokeWidth=1;" edge="1" parent="1">
          <mxGeometry width="50" height="50" relative="1" as="geometry">
            <mxPoint x="880.0039393939394" y="1520" as="sourcePoint" />
            <mxPoint x="880.0039393939394" y="1580" as="targetPoint" />
            <Array as="points">
              <mxPoint x="950" y="1520" />
              <mxPoint x="920" y="1580" />
            </Array>
          </mxGeometry>
        </mxCell>
        <mxCell id="fbryVeWGrD8wQyi_UNOS-44" value="&lt;span style=&quot;font-size: 18px;&quot;&gt;回傳認證結果&lt;/span&gt;" style="text;html=1;align=center;verticalAlign=middle;whiteSpace=wrap;rounded=0;" vertex="1" parent="1">
          <mxGeometry x="580" y="1630" width="120" height="20" as="geometry" />
        </mxCell>
        <mxCell id="fbryVeWGrD8wQyi_UNOS-45" value="&lt;font style=&quot;font-size: 14px;&quot;&gt;Authenticator&lt;/font&gt;" style="shape=umlLifeline;perimeter=lifelinePerimeter;whiteSpace=wrap;html=1;container=1;collapsible=0;recursiveResize=0;outlineConnect=0;rounded=1;shadow=0;comic=0;labelBackgroundColor=none;strokeWidth=1;fontFamily=Verdana;fontSize=14;align=center;fillColor=#fff2cc;strokeColor=#990000;aspect=fixed;" vertex="1" parent="1">
          <mxGeometry x="214" y="80" width="95.45" height="1680" as="geometry" />
        </mxCell>
        <mxCell id="fbryVeWGrD8wQyi_UNOS-46" value="" style="html=1;points=[];perimeter=orthogonalPerimeter;rounded=0;shadow=0;comic=0;labelBackgroundColor=none;strokeWidth=1;fontFamily=Verdana;fontSize=12;align=center;" vertex="1" parent="fbryVeWGrD8wQyi_UNOS-45">
          <mxGeometry x="51" y="670" width="10" height="290" as="geometry" />
        </mxCell>
        <mxCell id="fbryVeWGrD8wQyi_UNOS-47" value="" style="html=1;points=[];perimeter=orthogonalPerimeter;rounded=0;shadow=0;comic=0;labelBackgroundColor=none;strokeWidth=1;fontFamily=Verdana;fontSize=12;align=center;" vertex="1" parent="fbryVeWGrD8wQyi_UNOS-45">
          <mxGeometry x="56" y="770" width="10" height="130" as="geometry" />
        </mxCell>
        <mxCell id="fbryVeWGrD8wQyi_UNOS-48" value="" style="html=1;verticalAlign=bottom;endArrow=open;dashed=1;endSize=8;labelBackgroundColor=none;fontFamily=Verdana;fontSize=12;edgeStyle=elbowEdgeStyle;elbow=vertical;strokeWidth=1;exitX=0.366;exitY=0.996;exitDx=0;exitDy=0;exitPerimeter=0;entryX=1.015;entryY=0.851;entryDx=0;entryDy=0;entryPerimeter=0;" edge="1" parent="1" source="fbryVeWGrD8wQyi_UNOS-13" target="fbryVeWGrD8wQyi_UNOS-24">
          <mxGeometry x="0.0019" relative="1" as="geometry">
            <mxPoint x="780" y="630" as="targetPoint" />
            <Array as="points">
              <mxPoint x="810" y="590" />
            </Array>
            <mxPoint x="842" y="589.9999999999999" as="sourcePoint" />
            <mxPoint as="offset" />
          </mxGeometry>
        </mxCell>
        <mxCell id="fbryVeWGrD8wQyi_UNOS-49" value="&lt;span style=&quot;font-size: 18px;&quot;&gt;回傳&lt;/span&gt;" style="text;html=1;align=center;verticalAlign=middle;whiteSpace=wrap;rounded=0;" vertex="1" parent="1">
          <mxGeometry x="734" y="565" width="100" height="20" as="geometry" />
        </mxCell>
        <mxCell id="fbryVeWGrD8wQyi_UNOS-50" value="" style="html=1;verticalAlign=bottom;endArrow=open;dashed=1;endSize=8;labelBackgroundColor=none;fontFamily=Verdana;fontSize=12;edgeStyle=elbowEdgeStyle;elbow=vertical;strokeWidth=1;" edge="1" parent="1" source="fbryVeWGrD8wQyi_UNOS-20">
          <mxGeometry x="0.0019" relative="1" as="geometry">
            <mxPoint x="570" y="650" as="targetPoint" />
            <Array as="points">
              <mxPoint x="632" y="650" />
            </Array>
            <mxPoint x="702" y="650" as="sourcePoint" />
            <mxPoint as="offset" />
          </mxGeometry>
        </mxCell>
        <mxCell id="fbryVeWGrD8wQyi_UNOS-51" value="" style="html=1;verticalAlign=bottom;endArrow=open;dashed=1;endSize=8;labelBackgroundColor=none;fontFamily=Verdana;fontSize=12;edgeStyle=elbowEdgeStyle;elbow=vertical;strokeWidth=1;" edge="1" parent="1" source="fbryVeWGrD8wQyi_UNOS-1">
          <mxGeometry x="0.0019" relative="1" as="geometry">
            <mxPoint x="280" y="750" as="targetPoint" />
            <Array as="points">
              <mxPoint x="365.38" y="750" />
            </Array>
            <mxPoint x="410" y="750" as="sourcePoint" />
            <mxPoint as="offset" />
          </mxGeometry>
        </mxCell>
        <mxCell id="fbryVeWGrD8wQyi_UNOS-52" value="&lt;span style=&quot;font-size: 18px;&quot;&gt;觸發驗證&lt;/span&gt;" style="text;html=1;align=center;verticalAlign=middle;whiteSpace=wrap;rounded=0;" vertex="1" parent="1">
          <mxGeometry x="293" y="720" width="100" height="20" as="geometry" />
        </mxCell>
        <mxCell id="fbryVeWGrD8wQyi_UNOS-53" value="&lt;span style=&quot;color: rgb(0, 0, 0); font-family: Helvetica; font-size: 18px; font-style: normal; font-variant-ligatures: normal; font-variant-caps: normal; font-weight: 400; letter-spacing: normal; orphans: 2; text-align: center; text-indent: 0px; text-transform: none; widows: 2; word-spacing: 0px; -webkit-text-stroke-width: 0px; white-space: normal; background-color: rgb(251, 251, 251); text-decoration-thickness: initial; text-decoration-style: initial; text-decoration-color: initial; display: inline !important; float: none;&quot;&gt;發送認證結果&lt;/span&gt;" style="text;whiteSpace=wrap;html=1;" vertex="1" parent="1">
          <mxGeometry x="280" y="1000" width="110" height="30" as="geometry" />
        </mxCell>
        <mxCell id="fbryVeWGrD8wQyi_UNOS-54" value="&lt;span style=&quot;font-size: 18px;&quot;&gt;回傳使用者&lt;br&gt;公鑰&lt;/span&gt;" style="text;html=1;align=center;verticalAlign=middle;whiteSpace=wrap;rounded=0;" vertex="1" parent="1">
          <mxGeometry x="880" y="1280" width="120" height="40" as="geometry" />
        </mxCell>
        <mxCell id="fbryVeWGrD8wQyi_UNOS-55" value="&lt;div style=&quot;&quot;&gt;&lt;span style=&quot;font-size: 18px;&quot;&gt;取得使用者&lt;br&gt;公鑰&lt;/span&gt;&lt;/div&gt;" style="text;whiteSpace=wrap;html=1;align=center;" vertex="1" parent="1">
          <mxGeometry x="880" y="1190" width="110" height="50" as="geometry" />
        </mxCell>
        <mxCell id="fbryVeWGrD8wQyi_UNOS-57" value="&lt;span style=&quot;font-size: 18px;&quot;&gt;回傳認證結果&lt;/span&gt;" style="text;html=1;align=center;verticalAlign=middle;whiteSpace=wrap;rounded=0;" vertex="1" parent="1">
          <mxGeometry x="729" y="1580" width="120" height="20" as="geometry" />
        </mxCell>
        <mxCell id="fbryVeWGrD8wQyi_UNOS-58" value="" style="endArrow=classic;html=1;rounded=0;strokeWidth=1;exitX=1.086;exitY=0.691;exitDx=0;exitDy=0;exitPerimeter=0;" edge="1" parent="1">
          <mxGeometry width="50" height="50" relative="1" as="geometry">
            <mxPoint x="871.8599999999997" y="1250.0000000000002" as="sourcePoint" />
            <mxPoint x="1010" y="1250.0000000000002" as="targetPoint" />
          </mxGeometry>
        </mxCell>
        <mxCell id="SIYYIKkDRS6XC8U6jqJc-1" value="&lt;span style=&quot;font-size: 18px;&quot;&gt;完成嚴格顧客驗證的註冊流程&lt;/span&gt;" style="text;html=1;align=center;verticalAlign=middle;whiteSpace=wrap;rounded=0;" vertex="1" parent="1">
          <mxGeometry x="119" y="1690" width="274" height="20" as="geometry" />
        </mxCell>
      </root>
    </mxGraphModel>
  </diagram>
  <diagram id="KmsyPWMp5iBNuykTQi6T" name="跨機構轉帳">
    <mxGraphModel dx="1766" dy="1067" grid="1" gridSize="10" guides="1" tooltips="1" connect="1" arrows="1" fold="1" page="1" pageScale="1" pageWidth="827" pageHeight="1169" math="0" shadow="0">
      <root>
        <mxCell id="0" />
        <mxCell id="1" parent="0" />
        <mxCell id="0bmwV1e0UZwpimW2BSvL-3" value="" style="rounded=1;whiteSpace=wrap;html=1;dashed=1;strokeWidth=3;fillColor=none;" vertex="1" parent="1">
          <mxGeometry x="40" y="160" width="1090" height="470" as="geometry" />
        </mxCell>
        <mxCell id="eTbe5tLQlC9K166Rk0e2-1" value="&lt;span style=&quot;font-size: 20px;&quot;&gt;Web Server&lt;/span&gt;" style="shape=umlLifeline;perimeter=lifelinePerimeter;whiteSpace=wrap;html=1;container=1;collapsible=0;recursiveResize=0;outlineConnect=0;rounded=1;shadow=0;comic=0;labelBackgroundColor=none;strokeWidth=1;fontFamily=Verdana;fontSize=14;align=center;fillColor=#fff2cc;strokeColor=#990000;" vertex="1" parent="1">
          <mxGeometry x="460" y="80" width="680" height="1780" as="geometry" />
        </mxCell>
        <mxCell id="NzBxWbGzygOolnmmI0U3-7" value="" style="endArrow=classic;html=1;rounded=0;" edge="1" parent="eTbe5tLQlC9K166Rk0e2-1" target="eTbe5tLQlC9K166Rk0e2-3">
          <mxGeometry width="50" height="50" relative="1" as="geometry">
            <mxPoint x="70" y="360" as="sourcePoint" />
            <mxPoint x="120" y="310" as="targetPoint" />
          </mxGeometry>
        </mxCell>
        <mxCell id="1-1AVgnbUd7ekmtfbvRx-102" value="&lt;div&gt;&lt;span style=&quot;font-size: 18px;&quot;&gt;&lt;br&gt;&lt;/span&gt;&lt;/div&gt;&lt;span style=&quot;font-size: 18px;&quot;&gt;[準備階段一失敗]&lt;/span&gt;" style="rounded=1;whiteSpace=wrap;html=1;dashed=1;fillColor=none;strokeWidth=3;" vertex="1" parent="eTbe5tLQlC9K166Rk0e2-1">
          <mxGeometry x="-429" y="590" width="1109" height="1190" as="geometry" />
        </mxCell>
        <mxCell id="1-1AVgnbUd7ekmtfbvRx-106" value="&lt;br class=&quot;Apple-interchange-newline&quot;&gt;&lt;span style=&quot;color: rgb(0, 0, 0); font-family: Helvetica; font-size: 18px; font-style: normal; font-variant-ligatures: normal; font-variant-caps: normal; font-weight: 400; letter-spacing: normal; orphans: 2; text-align: center; text-indent: 0px; text-transform: none; widows: 2; word-spacing: 0px; -webkit-text-stroke-width: 0px; white-space: normal; background-color: rgb(251, 251, 251); text-decoration-thickness: initial; text-decoration-style: initial; text-decoration-color: initial; display: inline !important; float: none;&quot;&gt;[準備階段一成功]&lt;/span&gt;" style="text;whiteSpace=wrap;html=1;" vertex="1" parent="eTbe5tLQlC9K166Rk0e2-1">
          <mxGeometry x="56" y="601" width="170" height="60" as="geometry" />
        </mxCell>
        <mxCell id="eTbe5tLQlC9K166Rk0e2-3" value="&lt;font style=&quot;font-size: 20px;&quot;&gt;Web Server&lt;/font&gt;" style="shape=umlLifeline;perimeter=lifelinePerimeter;whiteSpace=wrap;html=1;container=1;collapsible=0;recursiveResize=0;outlineConnect=0;rounded=1;shadow=0;comic=0;labelBackgroundColor=none;strokeWidth=1;fontFamily=Verdana;fontSize=14;align=center;fillColor=#fff2cc;strokeColor=#990000;" vertex="1" parent="1">
          <mxGeometry x="810" y="80" width="140" height="1680" as="geometry" />
        </mxCell>
        <mxCell id="1-1AVgnbUd7ekmtfbvRx-7" value="" style="html=1;points=[];perimeter=orthogonalPerimeter;rounded=0;shadow=0;comic=0;labelBackgroundColor=none;strokeWidth=1;fontFamily=Verdana;fontSize=12;align=center;" vertex="1" parent="eTbe5tLQlC9K166Rk0e2-3">
          <mxGeometry x="70" y="360" width="10" height="160" as="geometry" />
        </mxCell>
        <mxCell id="eTbe5tLQlC9K166Rk0e2-13" value="&lt;font style=&quot;font-size: 30px;&quot;&gt;rp1&lt;/font&gt;" style="shape=note;whiteSpace=wrap;html=1;size=14;verticalAlign=top;align=center;spacingTop=-6;rounded=0;shadow=0;comic=0;labelBackgroundColor=none;strokeWidth=1;fontFamily=Verdana;fontSize=12;fillColor=#d5e8d4;strokeColor=#82b366;flipH=0;" vertex="1" parent="1">
          <mxGeometry x="100" y="30" width="300" height="40" as="geometry" />
        </mxCell>
        <mxCell id="eTbe5tLQlC9K166Rk0e2-15" value="&lt;font style=&quot;font-size: 20px;&quot;&gt;Web Server&lt;/font&gt;" style="shape=umlLifeline;perimeter=lifelinePerimeter;whiteSpace=wrap;html=1;container=1;collapsible=0;recursiveResize=0;outlineConnect=0;rounded=1;shadow=0;comic=0;labelBackgroundColor=none;strokeWidth=1;fontFamily=Verdana;fontSize=14;align=center;fillColor=#fff2cc;strokeColor=#990000;aspect=fixed;" vertex="1" parent="1">
          <mxGeometry x="100" y="80" width="140" height="1680" as="geometry" />
        </mxCell>
        <mxCell id="1-1AVgnbUd7ekmtfbvRx-103" value="&lt;font style=&quot;font-size: 18px;&quot;&gt;alt&lt;/font&gt;" style="shape=document;whiteSpace=wrap;html=1;boundedLbl=1;" vertex="1" parent="eTbe5tLQlC9K166Rk0e2-15">
          <mxGeometry x="20" y="627" width="60" height="30" as="geometry" />
        </mxCell>
        <mxCell id="Hhx8wGoLh5W6-awT5Fzs-1" value="&lt;span style=&quot;font-size: 30px;&quot;&gt;rp2&lt;/span&gt;" style="shape=note;whiteSpace=wrap;html=1;size=14;verticalAlign=top;align=center;spacingTop=-6;rounded=0;shadow=0;comic=0;labelBackgroundColor=none;strokeWidth=1;fontFamily=Verdana;fontSize=12;fillColor=#d5e8d4;strokeColor=#82b366;flipH=0;" vertex="1" parent="1">
          <mxGeometry x="810" y="30" width="300" height="40" as="geometry" />
        </mxCell>
        <mxCell id="Hhx8wGoLh5W6-awT5Fzs-2" value="&lt;span style=&quot;font-size: 30px;&quot;&gt;rp_general&lt;/span&gt;" style="shape=note;whiteSpace=wrap;html=1;size=14;verticalAlign=top;align=center;spacingTop=-6;rounded=0;shadow=0;comic=0;labelBackgroundColor=none;strokeWidth=1;fontFamily=Verdana;fontSize=12;fillColor=#d5e8d4;strokeColor=#82b366;flipH=0;" vertex="1" parent="1">
          <mxGeometry x="460" y="30" width="300" height="40" as="geometry" />
        </mxCell>
        <mxCell id="0bmwV1e0UZwpimW2BSvL-4" value="&lt;font style=&quot;font-size: 20px;&quot;&gt;Database&lt;/font&gt;" style="shape=umlLifeline;perimeter=lifelinePerimeter;whiteSpace=wrap;html=1;container=1;collapsible=0;recursiveResize=0;outlineConnect=0;rounded=1;shadow=0;comic=0;labelBackgroundColor=none;strokeWidth=1;fontFamily=Verdana;fontSize=14;align=center;fillColor=#fff2cc;strokeColor=#990000;aspect=fixed;" vertex="1" parent="1">
          <mxGeometry x="260" y="80" width="140" height="1680" as="geometry" />
        </mxCell>
        <mxCell id="ODvGBHZYD-J33e2CFpDP-1" value="" style="endArrow=classic;html=1;rounded=0;" edge="1" parent="0bmwV1e0UZwpimW2BSvL-4">
          <mxGeometry width="50" height="50" relative="1" as="geometry">
            <mxPoint x="-89.75" y="200" as="sourcePoint" />
            <mxPoint x="69.75" y="200" as="targetPoint" />
          </mxGeometry>
        </mxCell>
        <mxCell id="0bmwV1e0UZwpimW2BSvL-5" value="&lt;font style=&quot;font-size: 20px;&quot;&gt;Database&lt;/font&gt;" style="shape=umlLifeline;perimeter=lifelinePerimeter;whiteSpace=wrap;html=1;container=1;collapsible=0;recursiveResize=0;outlineConnect=0;rounded=1;shadow=0;comic=0;labelBackgroundColor=none;strokeWidth=1;fontFamily=Verdana;fontSize=14;align=center;fillColor=#fff2cc;strokeColor=#990000;" vertex="1" parent="1">
          <mxGeometry x="620" y="80" width="140" height="1680" as="geometry" />
        </mxCell>
        <mxCell id="0bmwV1e0UZwpimW2BSvL-6" value="&lt;font style=&quot;font-size: 20px;&quot;&gt;Database&lt;/font&gt;" style="shape=umlLifeline;perimeter=lifelinePerimeter;whiteSpace=wrap;html=1;container=1;collapsible=0;recursiveResize=0;outlineConnect=0;rounded=1;shadow=0;comic=0;labelBackgroundColor=none;strokeWidth=1;fontFamily=Verdana;fontSize=14;align=center;fillColor=#fff2cc;strokeColor=#990000;" vertex="1" parent="1">
          <mxGeometry x="970" y="80" width="140" height="1680" as="geometry" />
        </mxCell>
        <mxCell id="1-1AVgnbUd7ekmtfbvRx-4" value="" style="endArrow=classic;html=1;rounded=0;exitX=0.974;exitY=0.314;exitDx=0;exitDy=0;exitPerimeter=0;" edge="1" parent="0bmwV1e0UZwpimW2BSvL-6" source="1-1AVgnbUd7ekmtfbvRx-7">
          <mxGeometry width="50" height="50" relative="1" as="geometry">
            <mxPoint x="-70" y="410" as="sourcePoint" />
            <mxPoint x="69.5" y="410" as="targetPoint" />
          </mxGeometry>
        </mxCell>
        <mxCell id="1-1AVgnbUd7ekmtfbvRx-105" value="" style="endArrow=none;dashed=1;html=1;dashPattern=1 3;strokeWidth=2;rounded=0;exitX=-0.002;exitY=0.493;exitDx=0;exitDy=0;exitPerimeter=0;" edge="1" parent="0bmwV1e0UZwpimW2BSvL-6" source="1-1AVgnbUd7ekmtfbvRx-102">
          <mxGeometry width="50" height="50" relative="1" as="geometry">
            <mxPoint x="-945.55" y="1175.6599999999999" as="sourcePoint" />
            <mxPoint x="170" y="1174" as="targetPoint" />
          </mxGeometry>
        </mxCell>
        <mxCell id="1-1AVgnbUd7ekmtfbvRx-5" value="" style="html=1;verticalAlign=bottom;endArrow=open;dashed=1;endSize=8;labelBackgroundColor=none;fontFamily=Verdana;fontSize=12;edgeStyle=elbowEdgeStyle;elbow=vertical;strokeWidth=1;entryX=0.849;entryY=0.686;entryDx=0;entryDy=0;entryPerimeter=0;" edge="1" parent="0bmwV1e0UZwpimW2BSvL-6" target="1-1AVgnbUd7ekmtfbvRx-7">
          <mxGeometry x="0.0019" relative="1" as="geometry">
            <mxPoint x="-10" y="470" as="targetPoint" />
            <Array as="points">
              <mxPoint x="40.25" y="470" />
            </Array>
            <mxPoint x="69.75" y="470" as="sourcePoint" />
            <mxPoint as="offset" />
          </mxGeometry>
        </mxCell>
        <mxCell id="FnixT7pg7JMX_iu9bJm3-1" value="&lt;span style=&quot;font-size: 18px;&quot;&gt;準備階段&lt;/span&gt;" style="text;html=1;align=center;verticalAlign=middle;whiteSpace=wrap;rounded=0;" vertex="1" parent="1">
          <mxGeometry x="364" y="190" width="100" height="20" as="geometry" />
        </mxCell>
        <mxCell id="FnixT7pg7JMX_iu9bJm3-3" value="" style="endArrow=classic;html=1;rounded=0;" edge="1" parent="1" target="eTbe5tLQlC9K166Rk0e2-15">
          <mxGeometry width="50" height="50" relative="1" as="geometry">
            <mxPoint x="530" y="220" as="sourcePoint" />
            <mxPoint x="230.00176470588244" y="170" as="targetPoint" />
            <Array as="points">
              <mxPoint x="480" y="220" />
            </Array>
          </mxGeometry>
        </mxCell>
        <mxCell id="ODvGBHZYD-J33e2CFpDP-2" value="&lt;span style=&quot;font-size: 18px;&quot;&gt;準備扣款&lt;/span&gt;" style="text;html=1;align=center;verticalAlign=middle;whiteSpace=wrap;rounded=0;" vertex="1" parent="1">
          <mxGeometry x="200" y="250" width="100" height="20" as="geometry" />
        </mxCell>
        <mxCell id="LbpHbIfjAETIiFEP2OgH-1" value="" style="html=1;verticalAlign=bottom;endArrow=open;dashed=1;endSize=8;labelBackgroundColor=none;fontFamily=Verdana;fontSize=12;edgeStyle=elbowEdgeStyle;elbow=vertical;strokeWidth=1;" edge="1" parent="1">
          <mxGeometry x="0.0019" relative="1" as="geometry">
            <mxPoint x="170.25" y="340" as="targetPoint" />
            <Array as="points">
              <mxPoint x="300.25" y="340" />
            </Array>
            <mxPoint x="329.75" y="340" as="sourcePoint" />
            <mxPoint as="offset" />
          </mxGeometry>
        </mxCell>
        <mxCell id="LbpHbIfjAETIiFEP2OgH-2" value="&lt;span style=&quot;font-size: 18px;&quot;&gt;回傳準備狀態&lt;/span&gt;" style="text;html=1;align=center;verticalAlign=middle;whiteSpace=wrap;rounded=0;" vertex="1" parent="1">
          <mxGeometry x="181" y="310" width="138" height="20" as="geometry" />
        </mxCell>
        <mxCell id="NzBxWbGzygOolnmmI0U3-1" value="" style="html=1;points=[];perimeter=orthogonalPerimeter;rounded=0;shadow=0;comic=0;labelBackgroundColor=none;strokeWidth=1;fontFamily=Verdana;fontSize=12;align=center;" vertex="1" parent="1">
          <mxGeometry x="330" y="280" width="10" height="60" as="geometry" />
        </mxCell>
        <mxCell id="NzBxWbGzygOolnmmI0U3-2" value="" style="endArrow=classic;html=1;rounded=0;dashed=1;" edge="1" parent="1">
          <mxGeometry width="50" height="50" relative="1" as="geometry">
            <mxPoint x="170" y="380" as="sourcePoint" />
            <mxPoint x="529.5" y="380" as="targetPoint" />
          </mxGeometry>
        </mxCell>
        <mxCell id="NzBxWbGzygOolnmmI0U3-3" value="&lt;span style=&quot;font-size: 18px;&quot;&gt;回傳準備狀態&lt;/span&gt;" style="text;html=1;align=center;verticalAlign=middle;whiteSpace=wrap;rounded=0;" vertex="1" parent="1">
          <mxGeometry x="364" y="348" width="116" height="20" as="geometry" />
        </mxCell>
        <mxCell id="NzBxWbGzygOolnmmI0U3-4" value="&lt;font style=&quot;font-size: 18px;&quot;&gt;par&lt;/font&gt;" style="shape=document;whiteSpace=wrap;html=1;boundedLbl=1;" vertex="1" parent="1">
          <mxGeometry x="80" y="190" width="60" height="30" as="geometry" />
        </mxCell>
        <mxCell id="NzBxWbGzygOolnmmI0U3-6" value="" style="html=1;points=[];perimeter=orthogonalPerimeter;rounded=0;shadow=0;comic=0;labelBackgroundColor=none;strokeWidth=1;fontFamily=Verdana;fontSize=12;align=center;" vertex="1" parent="1">
          <mxGeometry x="530" y="220" width="10" height="160" as="geometry" />
        </mxCell>
        <mxCell id="1-1AVgnbUd7ekmtfbvRx-1" value="&lt;span style=&quot;font-size: 18px;&quot;&gt;準備階段&lt;/span&gt;" style="text;html=1;align=center;verticalAlign=middle;whiteSpace=wrap;rounded=0;" vertex="1" parent="1">
          <mxGeometry x="730" y="410" width="100" height="20" as="geometry" />
        </mxCell>
        <mxCell id="1-1AVgnbUd7ekmtfbvRx-2" value="&lt;span style=&quot;font-size: 18px;&quot;&gt;準備收款&lt;/span&gt;" style="text;html=1;align=center;verticalAlign=middle;whiteSpace=wrap;rounded=0;" vertex="1" parent="1">
          <mxGeometry x="904" y="460" width="100" height="20" as="geometry" />
        </mxCell>
        <mxCell id="1-1AVgnbUd7ekmtfbvRx-3" value="&lt;span style=&quot;font-size: 18px;&quot;&gt;回傳準備狀態&lt;/span&gt;" style="text;html=1;align=center;verticalAlign=middle;whiteSpace=wrap;rounded=0;" vertex="1" parent="1">
          <mxGeometry x="893" y="520" width="138" height="20" as="geometry" />
        </mxCell>
        <mxCell id="1-1AVgnbUd7ekmtfbvRx-6" value="" style="html=1;points=[];perimeter=orthogonalPerimeter;rounded=0;shadow=0;comic=0;labelBackgroundColor=none;strokeWidth=1;fontFamily=Verdana;fontSize=12;align=center;" vertex="1" parent="1">
          <mxGeometry x="1040" y="490" width="10" height="60" as="geometry" />
        </mxCell>
        <mxCell id="1-1AVgnbUd7ekmtfbvRx-8" value="&lt;span style=&quot;font-size: 18px;&quot;&gt;回傳準備狀態&lt;/span&gt;" style="text;html=1;align=center;verticalAlign=middle;whiteSpace=wrap;rounded=0;" vertex="1" parent="1">
          <mxGeometry x="722" y="560" width="116" height="20" as="geometry" />
        </mxCell>
        <mxCell id="1-1AVgnbUd7ekmtfbvRx-9" value="" style="endArrow=classic;html=1;rounded=0;dashed=1;" edge="1" parent="1">
          <mxGeometry width="50" height="50" relative="1" as="geometry">
            <mxPoint x="879.5" y="600" as="sourcePoint" />
            <mxPoint x="530" y="600" as="targetPoint" />
          </mxGeometry>
        </mxCell>
        <mxCell id="1-1AVgnbUd7ekmtfbvRx-56" value="" style="rounded=1;whiteSpace=wrap;html=1;dashed=1;strokeWidth=3;fillColor=none;" vertex="1" parent="1">
          <mxGeometry x="41" y="750" width="1090" height="470" as="geometry" />
        </mxCell>
        <mxCell id="1-1AVgnbUd7ekmtfbvRx-57" value="" style="endArrow=classic;html=1;rounded=0;" edge="1" parent="1">
          <mxGeometry width="50" height="50" relative="1" as="geometry">
            <mxPoint x="531" y="1030" as="sourcePoint" />
            <mxPoint x="880" y="1030" as="targetPoint" />
          </mxGeometry>
        </mxCell>
        <mxCell id="1-1AVgnbUd7ekmtfbvRx-58" value="" style="html=1;points=[];perimeter=orthogonalPerimeter;rounded=0;shadow=0;comic=0;labelBackgroundColor=none;strokeWidth=1;fontFamily=Verdana;fontSize=12;align=center;" vertex="1" parent="1">
          <mxGeometry x="881" y="1030" width="10" height="160" as="geometry" />
        </mxCell>
        <mxCell id="1-1AVgnbUd7ekmtfbvRx-59" value="" style="endArrow=classic;html=1;rounded=0;" edge="1" parent="1">
          <mxGeometry width="50" height="50" relative="1" as="geometry">
            <mxPoint x="171.25" y="870" as="sourcePoint" />
            <mxPoint x="330.75" y="870" as="targetPoint" />
          </mxGeometry>
        </mxCell>
        <mxCell id="1-1AVgnbUd7ekmtfbvRx-60" value="" style="endArrow=classic;html=1;rounded=0;exitX=0.974;exitY=0.314;exitDx=0;exitDy=0;exitPerimeter=0;" edge="1" parent="1" source="1-1AVgnbUd7ekmtfbvRx-58">
          <mxGeometry width="50" height="50" relative="1" as="geometry">
            <mxPoint x="901" y="1080" as="sourcePoint" />
            <mxPoint x="1040.5" y="1080" as="targetPoint" />
          </mxGeometry>
        </mxCell>
        <mxCell id="1-1AVgnbUd7ekmtfbvRx-61" value="" style="html=1;verticalAlign=bottom;endArrow=open;dashed=1;endSize=8;labelBackgroundColor=none;fontFamily=Verdana;fontSize=12;edgeStyle=elbowEdgeStyle;elbow=vertical;strokeWidth=1;entryX=0.849;entryY=0.686;entryDx=0;entryDy=0;entryPerimeter=0;" edge="1" parent="1" target="1-1AVgnbUd7ekmtfbvRx-58">
          <mxGeometry x="0.0019" relative="1" as="geometry">
            <mxPoint x="961" y="1140" as="targetPoint" />
            <Array as="points">
              <mxPoint x="1011.25" y="1140" />
            </Array>
            <mxPoint x="1040.75" y="1140" as="sourcePoint" />
            <mxPoint as="offset" />
          </mxGeometry>
        </mxCell>
        <mxCell id="1-1AVgnbUd7ekmtfbvRx-62" value="&lt;span style=&quot;font-size: 18px;&quot;&gt;準備提交&lt;/span&gt;" style="text;html=1;align=center;verticalAlign=middle;whiteSpace=wrap;rounded=0;" vertex="1" parent="1">
          <mxGeometry x="365" y="780" width="100" height="20" as="geometry" />
        </mxCell>
        <mxCell id="1-1AVgnbUd7ekmtfbvRx-63" value="" style="endArrow=classic;html=1;rounded=0;" edge="1" parent="1">
          <mxGeometry width="50" height="50" relative="1" as="geometry">
            <mxPoint x="531" y="810" as="sourcePoint" />
            <mxPoint x="170" y="810" as="targetPoint" />
            <Array as="points">
              <mxPoint x="481" y="810" />
            </Array>
          </mxGeometry>
        </mxCell>
        <mxCell id="1-1AVgnbUd7ekmtfbvRx-64" value="&lt;span style=&quot;font-size: 18px;&quot;&gt;正式扣款&lt;/span&gt;" style="text;html=1;align=center;verticalAlign=middle;whiteSpace=wrap;rounded=0;" vertex="1" parent="1">
          <mxGeometry x="201" y="840" width="100" height="20" as="geometry" />
        </mxCell>
        <mxCell id="1-1AVgnbUd7ekmtfbvRx-65" value="" style="html=1;verticalAlign=bottom;endArrow=open;dashed=1;endSize=8;labelBackgroundColor=none;fontFamily=Verdana;fontSize=12;edgeStyle=elbowEdgeStyle;elbow=vertical;strokeWidth=1;" edge="1" parent="1">
          <mxGeometry x="0.0019" relative="1" as="geometry">
            <mxPoint x="171.25" y="930" as="targetPoint" />
            <Array as="points">
              <mxPoint x="301.25" y="930" />
            </Array>
            <mxPoint x="330.75" y="930" as="sourcePoint" />
            <mxPoint as="offset" />
          </mxGeometry>
        </mxCell>
        <mxCell id="1-1AVgnbUd7ekmtfbvRx-66" value="&lt;span style=&quot;font-size: 18px;&quot;&gt;回傳扣款結果&lt;/span&gt;" style="text;html=1;align=center;verticalAlign=middle;whiteSpace=wrap;rounded=0;" vertex="1" parent="1">
          <mxGeometry x="182" y="900" width="138" height="20" as="geometry" />
        </mxCell>
        <mxCell id="1-1AVgnbUd7ekmtfbvRx-67" value="" style="html=1;points=[];perimeter=orthogonalPerimeter;rounded=0;shadow=0;comic=0;labelBackgroundColor=none;strokeWidth=1;fontFamily=Verdana;fontSize=12;align=center;" vertex="1" parent="1">
          <mxGeometry x="331" y="870" width="10" height="60" as="geometry" />
        </mxCell>
        <mxCell id="1-1AVgnbUd7ekmtfbvRx-68" value="" style="endArrow=classic;html=1;rounded=0;dashed=1;" edge="1" parent="1">
          <mxGeometry width="50" height="50" relative="1" as="geometry">
            <mxPoint x="171" y="970" as="sourcePoint" />
            <mxPoint x="530.5" y="970" as="targetPoint" />
          </mxGeometry>
        </mxCell>
        <mxCell id="1-1AVgnbUd7ekmtfbvRx-69" value="&lt;span style=&quot;font-size: 18px;&quot;&gt;回傳提交狀態&lt;/span&gt;" style="text;html=1;align=center;verticalAlign=middle;whiteSpace=wrap;rounded=0;" vertex="1" parent="1">
          <mxGeometry x="365" y="938" width="116" height="20" as="geometry" />
        </mxCell>
        <mxCell id="1-1AVgnbUd7ekmtfbvRx-70" value="&lt;font style=&quot;font-size: 18px;&quot;&gt;par&lt;/font&gt;" style="shape=document;whiteSpace=wrap;html=1;boundedLbl=1;" vertex="1" parent="1">
          <mxGeometry x="81" y="780" width="60" height="30" as="geometry" />
        </mxCell>
        <mxCell id="1-1AVgnbUd7ekmtfbvRx-71" value="" style="html=1;points=[];perimeter=orthogonalPerimeter;rounded=0;shadow=0;comic=0;labelBackgroundColor=none;strokeWidth=1;fontFamily=Verdana;fontSize=12;align=center;" vertex="1" parent="1">
          <mxGeometry x="530" y="810" width="10" height="160" as="geometry" />
        </mxCell>
        <mxCell id="1-1AVgnbUd7ekmtfbvRx-72" value="&lt;span style=&quot;font-size: 18px;&quot;&gt;準備提交&lt;/span&gt;" style="text;html=1;align=center;verticalAlign=middle;whiteSpace=wrap;rounded=0;" vertex="1" parent="1">
          <mxGeometry x="731" y="1000" width="100" height="20" as="geometry" />
        </mxCell>
        <mxCell id="1-1AVgnbUd7ekmtfbvRx-73" value="&lt;span style=&quot;font-size: 18px;&quot;&gt;正式收款&lt;/span&gt;" style="text;html=1;align=center;verticalAlign=middle;whiteSpace=wrap;rounded=0;" vertex="1" parent="1">
          <mxGeometry x="910" y="1050" width="100" height="20" as="geometry" />
        </mxCell>
        <mxCell id="1-1AVgnbUd7ekmtfbvRx-74" value="&lt;span style=&quot;font-size: 18px;&quot;&gt;回傳收款狀態&lt;/span&gt;" style="text;html=1;align=center;verticalAlign=middle;whiteSpace=wrap;rounded=0;" vertex="1" parent="1">
          <mxGeometry x="894" y="1110" width="138" height="20" as="geometry" />
        </mxCell>
        <mxCell id="1-1AVgnbUd7ekmtfbvRx-75" value="" style="html=1;points=[];perimeter=orthogonalPerimeter;rounded=0;shadow=0;comic=0;labelBackgroundColor=none;strokeWidth=1;fontFamily=Verdana;fontSize=12;align=center;" vertex="1" parent="1">
          <mxGeometry x="1041" y="1080" width="10" height="60" as="geometry" />
        </mxCell>
        <mxCell id="1-1AVgnbUd7ekmtfbvRx-76" value="&lt;span style=&quot;font-size: 18px;&quot;&gt;回傳提交狀態&lt;/span&gt;" style="text;html=1;align=center;verticalAlign=middle;whiteSpace=wrap;rounded=0;" vertex="1" parent="1">
          <mxGeometry x="723" y="1150" width="116" height="20" as="geometry" />
        </mxCell>
        <mxCell id="1-1AVgnbUd7ekmtfbvRx-77" value="" style="endArrow=classic;html=1;rounded=0;dashed=1;" edge="1" parent="1">
          <mxGeometry width="50" height="50" relative="1" as="geometry">
            <mxPoint x="880.5" y="1190" as="sourcePoint" />
            <mxPoint x="531" y="1190" as="targetPoint" />
          </mxGeometry>
        </mxCell>
        <mxCell id="1-1AVgnbUd7ekmtfbvRx-79" value="" style="rounded=1;whiteSpace=wrap;html=1;dashed=1;strokeWidth=3;fillColor=none;" vertex="1" parent="1">
          <mxGeometry x="41" y="1310" width="1090" height="470" as="geometry" />
        </mxCell>
        <mxCell id="1-1AVgnbUd7ekmtfbvRx-80" value="" style="endArrow=classic;html=1;rounded=0;" edge="1" parent="1">
          <mxGeometry width="50" height="50" relative="1" as="geometry">
            <mxPoint x="531" y="1590" as="sourcePoint" />
            <mxPoint x="880" y="1590" as="targetPoint" />
          </mxGeometry>
        </mxCell>
        <mxCell id="1-1AVgnbUd7ekmtfbvRx-81" value="" style="html=1;points=[];perimeter=orthogonalPerimeter;rounded=0;shadow=0;comic=0;labelBackgroundColor=none;strokeWidth=1;fontFamily=Verdana;fontSize=12;align=center;" vertex="1" parent="1">
          <mxGeometry x="881" y="1590" width="10" height="160" as="geometry" />
        </mxCell>
        <mxCell id="1-1AVgnbUd7ekmtfbvRx-82" value="" style="endArrow=classic;html=1;rounded=0;" edge="1" parent="1">
          <mxGeometry width="50" height="50" relative="1" as="geometry">
            <mxPoint x="171.25" y="1430" as="sourcePoint" />
            <mxPoint x="330.75" y="1430" as="targetPoint" />
          </mxGeometry>
        </mxCell>
        <mxCell id="1-1AVgnbUd7ekmtfbvRx-83" value="" style="endArrow=classic;html=1;rounded=0;exitX=0.974;exitY=0.314;exitDx=0;exitDy=0;exitPerimeter=0;" edge="1" parent="1" source="1-1AVgnbUd7ekmtfbvRx-81">
          <mxGeometry width="50" height="50" relative="1" as="geometry">
            <mxPoint x="901" y="1640" as="sourcePoint" />
            <mxPoint x="1040.5" y="1640" as="targetPoint" />
          </mxGeometry>
        </mxCell>
        <mxCell id="1-1AVgnbUd7ekmtfbvRx-84" value="" style="html=1;verticalAlign=bottom;endArrow=open;dashed=1;endSize=8;labelBackgroundColor=none;fontFamily=Verdana;fontSize=12;edgeStyle=elbowEdgeStyle;elbow=vertical;strokeWidth=1;entryX=0.849;entryY=0.686;entryDx=0;entryDy=0;entryPerimeter=0;" edge="1" parent="1" target="1-1AVgnbUd7ekmtfbvRx-81">
          <mxGeometry x="0.0019" relative="1" as="geometry">
            <mxPoint x="961" y="1700" as="targetPoint" />
            <Array as="points">
              <mxPoint x="1011.25" y="1700" />
            </Array>
            <mxPoint x="1040.75" y="1700" as="sourcePoint" />
            <mxPoint as="offset" />
          </mxGeometry>
        </mxCell>
        <mxCell id="1-1AVgnbUd7ekmtfbvRx-85" value="&lt;span style=&quot;font-size: 18px;&quot;&gt;回滾階段&lt;/span&gt;" style="text;html=1;align=center;verticalAlign=middle;whiteSpace=wrap;rounded=0;" vertex="1" parent="1">
          <mxGeometry x="365" y="1340" width="100" height="20" as="geometry" />
        </mxCell>
        <mxCell id="1-1AVgnbUd7ekmtfbvRx-86" value="" style="endArrow=classic;html=1;rounded=0;" edge="1" parent="1">
          <mxGeometry width="50" height="50" relative="1" as="geometry">
            <mxPoint x="531" y="1370" as="sourcePoint" />
            <mxPoint x="170" y="1370" as="targetPoint" />
            <Array as="points">
              <mxPoint x="481" y="1370" />
            </Array>
          </mxGeometry>
        </mxCell>
        <mxCell id="1-1AVgnbUd7ekmtfbvRx-87" value="&lt;span style=&quot;font-size: 18px;&quot;&gt;正式回滾&lt;/span&gt;" style="text;html=1;align=center;verticalAlign=middle;whiteSpace=wrap;rounded=0;" vertex="1" parent="1">
          <mxGeometry x="201" y="1400" width="100" height="20" as="geometry" />
        </mxCell>
        <mxCell id="1-1AVgnbUd7ekmtfbvRx-88" value="" style="html=1;verticalAlign=bottom;endArrow=open;dashed=1;endSize=8;labelBackgroundColor=none;fontFamily=Verdana;fontSize=12;edgeStyle=elbowEdgeStyle;elbow=vertical;strokeWidth=1;" edge="1" parent="1">
          <mxGeometry x="0.0019" relative="1" as="geometry">
            <mxPoint x="171.25" y="1490" as="targetPoint" />
            <Array as="points">
              <mxPoint x="301.25" y="1490" />
            </Array>
            <mxPoint x="330.75" y="1490" as="sourcePoint" />
            <mxPoint as="offset" />
          </mxGeometry>
        </mxCell>
        <mxCell id="1-1AVgnbUd7ekmtfbvRx-89" value="&lt;span style=&quot;font-size: 18px;&quot;&gt;回傳回滾結果&lt;/span&gt;" style="text;html=1;align=center;verticalAlign=middle;whiteSpace=wrap;rounded=0;" vertex="1" parent="1">
          <mxGeometry x="182" y="1460" width="138" height="20" as="geometry" />
        </mxCell>
        <mxCell id="1-1AVgnbUd7ekmtfbvRx-90" value="" style="html=1;points=[];perimeter=orthogonalPerimeter;rounded=0;shadow=0;comic=0;labelBackgroundColor=none;strokeWidth=1;fontFamily=Verdana;fontSize=12;align=center;" vertex="1" parent="1">
          <mxGeometry x="331" y="1430" width="10" height="60" as="geometry" />
        </mxCell>
        <mxCell id="1-1AVgnbUd7ekmtfbvRx-91" value="" style="endArrow=classic;html=1;rounded=0;dashed=1;" edge="1" parent="1">
          <mxGeometry width="50" height="50" relative="1" as="geometry">
            <mxPoint x="171" y="1530" as="sourcePoint" />
            <mxPoint x="530.5" y="1530" as="targetPoint" />
          </mxGeometry>
        </mxCell>
        <mxCell id="1-1AVgnbUd7ekmtfbvRx-92" value="&lt;span style=&quot;font-size: 18px;&quot;&gt;回傳回滾狀態&lt;/span&gt;" style="text;html=1;align=center;verticalAlign=middle;whiteSpace=wrap;rounded=0;" vertex="1" parent="1">
          <mxGeometry x="365" y="1498" width="116" height="20" as="geometry" />
        </mxCell>
        <mxCell id="1-1AVgnbUd7ekmtfbvRx-93" value="&lt;font style=&quot;font-size: 18px;&quot;&gt;par&lt;/font&gt;" style="shape=document;whiteSpace=wrap;html=1;boundedLbl=1;" vertex="1" parent="1">
          <mxGeometry x="81" y="1340" width="60" height="30" as="geometry" />
        </mxCell>
        <mxCell id="1-1AVgnbUd7ekmtfbvRx-94" value="" style="html=1;points=[];perimeter=orthogonalPerimeter;rounded=0;shadow=0;comic=0;labelBackgroundColor=none;strokeWidth=1;fontFamily=Verdana;fontSize=12;align=center;" vertex="1" parent="1">
          <mxGeometry x="530" y="1370" width="10" height="160" as="geometry" />
        </mxCell>
        <mxCell id="1-1AVgnbUd7ekmtfbvRx-95" value="&lt;span style=&quot;font-size: 18px;&quot;&gt;準備回滾&lt;/span&gt;" style="text;html=1;align=center;verticalAlign=middle;whiteSpace=wrap;rounded=0;" vertex="1" parent="1">
          <mxGeometry x="731" y="1560" width="100" height="20" as="geometry" />
        </mxCell>
        <mxCell id="1-1AVgnbUd7ekmtfbvRx-96" value="&lt;span style=&quot;font-size: 18px;&quot;&gt;正式回滾&lt;/span&gt;" style="text;html=1;align=center;verticalAlign=middle;whiteSpace=wrap;rounded=0;" vertex="1" parent="1">
          <mxGeometry x="913" y="1610" width="100" height="20" as="geometry" />
        </mxCell>
        <mxCell id="1-1AVgnbUd7ekmtfbvRx-97" value="&lt;span style=&quot;font-size: 18px;&quot;&gt;回傳回滾結果&lt;/span&gt;" style="text;html=1;align=center;verticalAlign=middle;whiteSpace=wrap;rounded=0;" vertex="1" parent="1">
          <mxGeometry x="894" y="1670" width="138" height="20" as="geometry" />
        </mxCell>
        <mxCell id="1-1AVgnbUd7ekmtfbvRx-98" value="" style="html=1;points=[];perimeter=orthogonalPerimeter;rounded=0;shadow=0;comic=0;labelBackgroundColor=none;strokeWidth=1;fontFamily=Verdana;fontSize=12;align=center;" vertex="1" parent="1">
          <mxGeometry x="1041" y="1640" width="10" height="60" as="geometry" />
        </mxCell>
        <mxCell id="1-1AVgnbUd7ekmtfbvRx-99" value="&lt;span style=&quot;font-size: 18px;&quot;&gt;回傳回滾狀態&lt;/span&gt;" style="text;html=1;align=center;verticalAlign=middle;whiteSpace=wrap;rounded=0;" vertex="1" parent="1">
          <mxGeometry x="723" y="1710" width="116" height="20" as="geometry" />
        </mxCell>
        <mxCell id="1-1AVgnbUd7ekmtfbvRx-100" value="" style="endArrow=classic;html=1;rounded=0;dashed=1;" edge="1" parent="1">
          <mxGeometry width="50" height="50" relative="1" as="geometry">
            <mxPoint x="880.5" y="1750" as="sourcePoint" />
            <mxPoint x="531" y="1750" as="targetPoint" />
          </mxGeometry>
        </mxCell>
      </root>
    </mxGraphModel>
  </diagram>
</mxfile>
